/* XPM */
static const char *AmiKo_xpm[] = {
/* columns rows colors chars-per-pixel */
"64 64 172 2 ",
"   c None",
".  c #A58D56",
"X  c #AC945D",
"o  c #B29555",
"O  c #B39758",
"+  c #B49A5C",
"@  c #B89D5D",
"#  c #AF9760",
"$  c #AF9860",
"%  c #B49C64",
"&  c #BB9F61",
"*  c #B59E68",
"=  c #BEA364",
"-  c #BBA46B",
";  c #BFA86F",
":  c #BFA870",
">  c #BFA978",
",  c #C0A667",
"<  c #C1A769",
"1  c #C5AB6D",
"2  c #C8AE6F",
"3  c #C4AC73",
"4  c #C9AF71",
"5  c #C7B077",
"6  c #CCB275",
"7  c #CCB47A",
"8  c #CFB87D",
"9  c #D0B77A",
"0  c #D3BB7D",
"q  c #C5B282",
"w  c #D4BC82",
"e  c #D8BF82",
"r  c #D7C085",
"t  c #DAC385",
"y  c #DDC887",
"u  c #DCC58A",
"i  c #DFCA8C",
"p  c #E0CA87",
"a  c #E0C689",
"s  c #E1CB8E",
"d  c #E3CE92",
"f  c #E6D195",
"g  c #EAD396",
"h  c #E7D399",
"j  c #EAD59B",
"k  c #EDD89E",
"l  c #F0D799",
"z  c #F1DA9D",
"x  c #E8D6A3",
"c  c #EED9A0",
"v  c #EDDBAB",
"b  c #F1DBA2",
"n  c #F3DEAB",
"m  c #EDDDB2",
"M  c #EEDFB9",
"N  c #F0DFB2",
"B  c #F7E1A3",
"V  c #FBE3A6",
"C  c #FFE8A6",
"Z  c #F4E0AF",
"A  c #FCE5A9",
"S  c #FFEAAD",
"D  c #EFE0B6",
"F  c #F4E2B5",
"G  c #F9E5B3",
"H  c #FFECB3",
"J  c #F5E5BC",
"K  c #F9E7BC",
"L  c #FFEDBB",
"P  c #FFF5B5",
"I  c #F6E6C1",
"U  c #F8E7C1",
"Y  c #F7E8C4",
"T  c #F8E9C5",
"R  c #F7EACB",
"E  c #F9EBCB",
"W  c #F9EBCA",
"Q  c #FAEBCA",
"!  c #F9EBC9",
"~  c #F9ECCB",
"^  c #FAECCB",
"/  c #F8EBCD",
"(  c #F8EBCC",
")  c #F8EBCE",
"_  c #F8EBCF",
"`  c #F9ECCD",
"'  c #F9ECCC",
"]  c #FAECCC",
"[  c #FAECCD",
"{  c #FAEDCD",
"}  c #F8ECCF",
"|  c #F9ECCF",
" . c #FAEDCE",
".. c #FAEDCF",
"X. c #FBEECF",
"o. c #FAECCB",
"O. c #FFF3C1",
"+. c #FFF2C2",
"@. c #FFF7C6",
"#. c #FFF7C8",
"$. c #FFF4CA",
"%. c #FFF7CE",
"&. c #F8ECD1",
"*. c #FAEDD0",
"=. c #FBEDD0",
"-. c #FAEED0",
";. c #FBEED1",
":. c #FBEED2",
">. c #FBEFD2",
",. c #FAEED3",
"<. c #FBEFD3",
"1. c #FBEFD4",
"2. c #FBEFD5",
"3. c #FCEFD4",
"4. c #FBEFD2",
"5. c #FFF7D2",
"6. c #FBF0D6",
"7. c #FCF0D4",
"8. c #FCF0D5",
"9. c #FEF2D5",
"0. c #FCF0D6",
"q. c #FCF1D6",
"w. c #FCF1D7",
"e. c #FDF0D7",
"r. c #FFF3D6",
"t. c #FCF1D6",
"y. c #FFF8D5",
"u. c #FFF9D7",
"i. c #FCF1D8",
"p. c #FDF1D8",
"a. c #FDF1D9",
"s. c #FDF2D8",
"d. c #FDF2D9",
"f. c #FCF2DA",
"g. c #FDF2DA",
"h. c #FDF3DB",
"j. c #FEF3DB",
"k. c #FDF3DC",
"l. c #FEF3DC",
"z. c #FEF4DC",
"x. c #FFF4DD",
"c. c #FEF4DD",
"v. c #FEF4DE",
"b. c #FFF5DF",
"n. c #FFF5DF",
"m. c #FEF4DD",
"M. c #FFF9D9",
"N. c #FFFAD9",
"B. c #FFFADA",
"V. c #FFFBDC",
"C. c #FFFBDE",
"Z. c #FFFCDF",
"A. c #FFFCDE",
"S. c #FFF6E1",
"D. c #FFF7E3",
"F. c #FFF7E3",
"G. c #FFF8E0",
"H. c #FFFAE2",
"J. c #FFFDE1",
"K. c #FFFEE2",
"L. c #FFFEE3",
"P. c #FFFEE4",
"I. c #FFFFE5",
"U. c #FFFEE7",
"Y. c #FFFFE7",
"T. c #FFF8E6",
"R. c #FFFFE8",
"E. c #FFFFE9",
"W. c #FFFFED",
"Q. c #FFFFEE",
"!. c #FFF9E8",
"~. c ivory",
/* pixels */
"            d x v x v v v v v m v m m m N D m F M                             m m m m m m m m m m D F F F F F F F c             ",
"        d n $.5.u.M.M.M.C.C.J.L.L.L.I.I.I.E.E.E.~.:.                        &.~.I.E.!.U.P.H.L.L.L.A.A.N.M.C.M.y.5.5.G b         ",
"      d +.T ! ! R ^ { { :.:.,.6.w.d.d.d.d.k.x.x.k.W.:.                    R W.F.C.x.x.f.6.k.f.6.6.6.7./ $.R ^ ! ! ! T @.n       ",
"    d +.T I T T R ! ^ { { :.:.,.,.w.d.d.d.k.k.x.k.S.J.                    F.x.k.x.x.f.i.6.6.6.6.6.&.&.$.{ ^ R ! Y T T T O.n     ",
"    G K J K I U T T ! / { { :.:.7.7.6.6.i.i.f.f.k.k.E.:.                &.E.k.k.k.f.i.i.q.6.6.-.:.{ :./ R ^ ! T Y U K J J L     ",
"  h L J J J I I ! ! ! / { :.:.:.6.6.6.w.f.k.k.B.F.F.F.W.                W.F.F.x.k.B.k.k.f.6.q.-.:.7.&./ ^ ^ R R T K K J J L n   ",
"  x F G J J K I J J I I Y Y Y R Y R R R / / } } / &.:.d.!             I w.:.{ R } R ( R R R R R Y Y Y I J J J D J U J J F F n   ",
"  S F F F J n f d d d f d d f f f h h h h h h j g j g j A j         d z s d d d d d d d d d d d d i i d i i i i d v J F F F H   ",
"f H Z Z F v i i d d d f d d f f f f f f f j h h j j j j j b         f f f f f f f f f f f d d d d d s s i i y y t t v F F Z H n ",
"f S Z Z F j s f f d d f f f f f h f h h g g j h h j j k j V c     f k f f f f f f f f f f f f f d d d s s i i y y y f F Z n H c ",
"h S Z Z Z h f d d d f f f f f f h h h h j h j j j j k j c c A     B g f f h h j h h h h f h h f f f d d s s i i y y d Z n n S b ",
"h S c Z Z h i d f f d f f f f f h h j j j g j j j j j j k x b s y g h g j h j j j j j h j h j h f f f d f d d i i y d v n n H c ",
"h S c n B h d f f f f f f f f h h h j h j j j j j k j k k c h 0 8 d j j j j j j j j j k j j j j h h h f f s d i s y s n b b S b ",
"h S b b v h f d d f f f f h h h j h h j j j j j x k k k c b e 7 5 0 c j j j k j k j j k j j j j j h h f f f d d s y d n b b S b ",
"h S b b B h s f f f f f h h h h h j j j j j j k k k k k b c 2 9 7 1 j j j j j k k k k k k j j j j j j h h f f s d i d b b b S v ",
"h S b b k f f f f f f h h h h h h j j j j j j j k j k k b a < 0 9 = i j c c c c k k k j c k c j j j j j h f f f f i d b b z S b ",
"j S b b b h d h f f h h h g h j h j j j j k k j j c c c c 9 2 0 0 1 7 c b j j c c c c k c k k k k j j j h h h f d s d c z b P c ",
"j S b b b f d f f h f h h g h j j j k j k j k k c c c c d 6 6 0 w 4 4 d b c b c b k c b b c k k k k j j j h h f d d f z B c S b ",
"j S b b b h h h h h h j j j h j j j k j j k k k c c b b t 9 9 e 0 5 6 e c c b c c c k c k b k k k k k j j h h f f d d c b b S c ",
"j S b b b h f f h h h h h j j j j j k j k k k k b x b j w 0 9 e e 7 w 9 f b b b b b b c b k b k k k j k j j h h f d h z b b S b ",
"j S b b b h f h h h h h j j j j h k k k j k c c b b b a e e w e r 0 0 0 s b b b b b b k k b k b c k k j j j h h f f f c b b S b ",
"j S b b b g h g j h j j j j j j k k k k c k c c b b j e e e e t r 0 r t e j b b b b b b b b b k c c k k k j j h f d f b b b S b ",
"x A b b b g f g h h j j j j j c k k k k c c k c b b d u a a e a u e t p u d b b b b b b b c b k c c k j k j j h f f f c b b S b ",
"x S b b b j f j h j j j j j j k k k k c c c c c b b a a a a a a u e u a a a k b c b b b b b b c c c k k j j j h h d f b b b S b ",
"j A b b b j h h j j j j j j j j k k k j c c b B b j d s a a a d u u a a d s j b n z b b b b k b c c c c x j j h f f f b b B S c ",
"j H V b b j g j j h j j c j c c k k k k c B b f 5 7 f d d a d a s a s s d h 7 5 d b b b b b b b c c j j j j g h f f f b b B P c ",
"    b S b j h j j j j j j c k k k k c B z i 4 o o o 7 g d d d s s a d d d 9 o o O 3 i z b b b b c c c c k j j h f d f b S b     ",
"      b b B j j j j c j j c j k c v j y 2 o o @ @ @ @ 9 g g d d s d d h 9 O & & @ O O 1 a k b b c c j c j j g g h f z b n       ",
"          j B b j c j k k k b c j r 1 @ @ = = = , , 1 = 0 g h d s d h w = < < = = = = @ + = w h c c j j j j j g k z h           ",
"              k A j j c c c f 0 - & = = 1 1 1 1 2 2 4 4 2 t g f d h w 1 4 2 2 2 1 1 < 1 < = = < w d k v j j j B g               ",
"                c B n j d 9 = = ; 4 4 4 2 4 6 6 6 9 9 0 0 9 a g d a 9 w 0 9 6 6 6 6 6 2 2 2 1 , = = 6 y f k b j                 ",
"                    h y 7 6 0 0 0 0 e e e e y e t t t t p p a d d e a a e e a a t t r t t r t r r r 0 w d j                     ",
"                    h N Y Y Y J I J I J J J J J F J J F J N N c c M N N K K N K J J K K T T T T T T { { K b                     ",
"                j B h h v I 6.B.d.7.:.:.:.{ { / { ! ! T Q R G j l K Q Q Q Q Q [ { { :.:.:.{ :.d.w.:.K Z z n S B                 ",
"            z f z d d h d f k J 6.x.x.d.w.3.3.3.,.:.=.:.=.N l c c b N 3.:.:.:.3.6.6.6.i.i.k.F.,.I c z z b b b A B b             ",
"          j z d d d h h h h h h c J ,.F.T.F.S.k.x.k.k.d.K b n b x n b K k.k.k.k.x.x.F.T.J.,.F x j c c b b b b b n S n           ",
"      V C g s d d d g f h h j k j j c J :.F.T.T.T.F.T.J b n N b b n n b T T.T.S.T.!.F.R m h g k k c c b b b b c b b V A B       ",
"    B S c d s d d f f f h h j j j c c l z N ! S.T.T.U b n n G n n F n n b T T.T.k.Y x f f j j j j c b b b b b b b b b b S n     ",
"A P b b z f i d d f f f h j h k k k c b b z k n ! U n n N N J n v J F F n n Y J h s d h g j j j k c c b b b b b b b b b b b P A ",
"A S b b c d s s d f f f h h j j j c c b b b b z z b F F K N K N n J F J F F j u d f f f f j j k k c c b b b b b b b b b b b S V ",
"A S b b b s s d d f f f f h h k k c c b b b b b b b F J J K U N N I J J F F f f f f f h g j j j j c b b b b b b b b b b b b S V ",
"A S b b c f i d d d f f h g j j j k c b b b b b b b N K J K R N F R I K T v i f i f f f h h j x c c c b b b b b b b b b b b S B ",
"A S c b c d s d d f f f h j j j c c c b b b b c b b n J Y U ! N F ! U T K h i f f f f h g j j k j c c b b b b c b b b b b b S A ",
"A S b b b d i d d d f f h h j j j c c b b b b b b b z J R R =.J J / ! ! D i s d d f f f g j j x c c c b b b b b b b b b b b S V ",
"V S c B b d i d f f f f h j j j k k k b b b b b b b b n / ! &.J J &.R ! x y d d d f f f g j j j j c c b b b b b b b b b b b S V ",
"V P b b b d i d i f f f h h j j k k c b b b c b b c b b Y :.,.J J ,.:.I i i s d s f f f h j g k c c c b b b b b b b b b b b S V ",
"A S c b c d s d d f f f h h j j k k c b b b b b b b b z F :.,.I J 6.,.x y d d d f f f g g j j x j c c b c b b b b b b b b b S V ",
"A S c B z f i d d f f f h j j j j k c b b b b b b b b z b ! k.I I k.R u i d s d d f f f h j j j k c b b b b b b b b b b b b S V ",
"A S c b z f i s f f f f h h j j j c c b b b b b b b b c l G S.I J C.v y d i s d d d f f h j j k j c c b b b b b b b b b b b S V ",
"A S b b k f s f f s f f h h j j c c b b b b b b b b b b b b e.Y Y 7.i y i s d d f f f h h j j j c c c b b b b b b c b b b b S V ",
"A S c b c f i f s f f f h h j j c j k b b c b b b b b b b z T T R D y i i d d d d f f h j j j k k c b b b b b b b b b b b b S V ",
"A S b b c f i i f d f f h h j j j k c b b b b b b b b b b z n T I f y i i i i f d d f f g h j j j c c b b b b b b b c b b b S V ",
"A S c B j f i f d d f h h h j k c c c b b b b b b b b b b b n n x y i s i f s s f f f g g j j j c c c b b b b b b b b b b b S B ",
"V S b k j i i f d d f f h j j j j k c b b b b b b c b b b b S     g i i i s s f d f d h h g j x j c b b b b b b b b j j k b S V ",
"A S k j j d i s d f f f f h h j k k c b b c b b b b c b b S b     g g i i s d d d d h h h j j k c c c b b b b b b b c h k z S A ",
"S S k j h d d d d f f f j j j k k k b b b b b b b b b b b b         s d s s d d h d h g j j j x k c b b b b b b b b h f g j S S ",
"  V j h d d s s s d d f f f f f j j j j k k x k k k k k V n         j g y i i i d d d d d h h g j j c l j b b x j d e x x h n   ",
"  b j h d s u u r r 8 r 8 7 7 5 5 3 3 3 : - - - * * * = 3             5 = % $ - - * - - : 3 3 5 5 7 7 q w w w w e u x e d x b   ",
"  A n d s e u w r w 8 7 5 5 > > ; - = * * % # X X X . %                 - . X X # # % % * - - - 3 3 5 7 7 w w w e s s d d b V   ",
"    N e x e u w w 8 8 7 5 5 5 : ; - - * * % % + + X % 3                 > % X X # % % * * - - 3 3 3 5 5 7 7 w w e e e d s V     ",
"    A C t t e w 0 8 8 6 5 5 ; ; < - - * % % % X X . *                     % . $ # % % % & & * < : 3 3 5 7 7 9 w w w t t V S     ",
"      S V u w 8 7 5 5 5 5 ; ; - * * % % X X X X . + 7                     q % . . X X # % * * * * - < 3 3 4 7 7 w w t V V       ",
"          z z s p a p t e 0 9 9 0 9 6 5 3 3 1 < 3 5                         3 3 < 3 3 4 5 6 9 9 0 0 w e a a a s s j z           ",
"              B b z z z z z z z l l l l g l l j j                             k l g l l j l l z l z z b z z z z b               "
};
