/* XPM */
static char *AmiKo_xpm[] = {
/* columns rows colors chars-per-pixel */
"64 64 87 1 ",
"  c None",
". c #A58D56",
"X c #AC945D",
"o c #B29555",
"O c #B39758",
"+ c #B49A5C",
"@ c #B89D5D",
"# c #AF9760",
"$ c #AF9860",
"% c #B49C64",
"& c #BB9F61",
"* c #B59E68",
"= c #BEA364",
"- c #BBA46B",
"; c #BFA86F",
": c #BFA870",
"> c #BFA978",
", c #C0A667",
"< c #C1A769",
"1 c #C5AB6D",
"2 c #C8AE6F",
"3 c #C4AC73",
"4 c #C9AF71",
"5 c #C7B077",
"6 c #CCB275",
"7 c #CCB47A",
"8 c #CFB87D",
"9 c #D0B77A",
"0 c #D3BB7D",
"q c #C5B282",
"w c #D4BC82",
"e c #D8BF82",
"r c #D7C085",
"t c #DAC385",
"y c #DDC887",
"u c #DCC58A",
"i c #DFCA8C",
"p c #E0CA87",
"a c #E0C689",
"s c #E1CB8E",
"d c #E3CE92",
"f c #E6D195",
"g c #EAD396",
"h c #E7D399",
"j c #EAD59B",
"k c #EDD89E",
"l c #F0D799",
"z c #F1DA9D",
"x c #E8D6A3",
"c c #EED9A0",
"v c #EDDBAB",
"b c #F1DBA2",
"n c #F3DEAB",
"m c #EDDDB2",
"M c #EEDFB9",
"N c #F0DFB2",
"B c #F7E1A3",
"V c #FBE3A6",
"C c #FFE8A6",
"Z c #F4E0AF",
"A c #FCE5A9",
"S c #FFEAAD",
"D c #EFE0B6",
"F c #F4E2B5",
"G c #F9E5B3",
"H c #FFECB3",
"J c #F5E5BC",
"K c #F9E7BC",
"L c #FFEDBB",
"P c #FFF5B5",
"I c #F6E6C1",
"U c #F8E7C1",
"Y c #F7E8C4",
"T c #F8E9C5",
"R c #F7EACB",
"E c #F9ECCB",
"W c #FFF4C3",
"Q c #FFF6CB",
"! c #FBEED2",
"~ c #FCF1D6",
"^ c #FFF8D6",
"/ c #FEF3DC",
"( c #FFFBDC",
") c #FFF7E3",
"_ c #FFFCE4",
"` c #FFFEEA",
"' c ivory",
/* pixels */
"      dxvxvvvvmmvmmDDDDDD              mmmmmmmmmmDDDFFFFZx      ",
"    dnQ~^^^(((_(______`_`!            !'``_`____((((((^^^^Kb    ",
"   dWTEEEEE~!~~~~/~/////)`!          R')////~~//~!~!~EQYTWYWb   ",
"  dWTKYYRTEEEE!!~!~///////_          /)///~/~/~E!!!!RRY!TTYY^b  ",
"  GKJKJYTYERRE!!!!~~~~/~//`!        !`/////~/E~~!!!RRYYYTKKJJL  ",
" hLJJJYYETEE!!!~~~/~///()))`        `)))/)////~~!!!!R!RYYYJJFLB ",
" xFGJJKJJJYYYYYYRRERRRTEE!!/E      Y/ERERERRRRYYYYIYJJJJJYJJFFZ ",
" SFFFKvhdddddfffffhhhhjhhhhhVh    szsddddddddsdsssiiiiiisvKFFFH ",
"fHZFFnydddsfdfdfffhhhhhjkhhkhb    fffffffffdfffsssssiiyyttxFFZPb",
"fSZZFhddddfffffffhhhjhhjhhkkkVx  fkfffffffffffffhdsssiiyyyfFZZHb",
"fSBZZfddddfdffffhhfkhhjjkhkhkkS  BhffkhhhhfhfhhfhssfssiiiysZnnHb",
"hSxZZhddffffffffhfhhjjjjkkhkkxbayhhhhfkfkhkhhkhfhhfffddiiysZnnSb",
"hSbnZhfdffffffhfhhhhhhkhhhkkjbjw9dhhkhhkkhkhhkhhhhhhfddistsnbbSb",
"hSbbxhfffffffhhhhhkhkkhkkkkkxbe669khkkkkkkkhhkkhhhhhffddsidnbbHb",
"hSbbBfsfffffhfhhhkhkhkhkkkkkbb2981kkhkkkkkkkkkkkkhhhfffddidbbbSx",
"hSbbkffffffhhhhhhhkhhkkhkkkkba,09=ikkkkxkkkkkkkhkljhfffdfsdbbbSb",
"hHbbbhffffhhhjhjjhjkhhkkccjcc92e919hkzbhbkxzkkbhkkhkhhhddddBBBSb",
"hSbbbhffhffhjhhjjjjjkkkkcccbd94ew46dbxbbkbzbbbkbkhkhkhhhdddkkkSb",
"hSbbbhfffhhhhhjjjjjjhkkkcccbe99ew69tbxzbbxbxkblxkkkhhhhhdddkbbSb",
"xSbbbhffffkhjjhjjkkkkkkkccbje99er799hbxbzbbbbhbbkkkkkhkhhddBbbSb",
"hSbbzhhhhkffkhhkkkhkkkkkcbbaee0tt9t9abbbbbbbxzbbkkkhkhhhfdfbbbSb",
"hSbbbhhhhhhkhhkkhhbkkkkbcbceeeett9ttahbbbbbbbbbhbkkkbhhhhffxbbSb",
"xSbbzhhhkfkhkhkhbhkkkbkBcbdaaaeatetttdbbbbbbbbbzkkkkhkhhhdfzbbPx",
"hSbbbhhhhhhkhkhkkbkkkkbkbcaaaaaauttsaskbbbbbbbbxbkkkbhhhhffbbbSb",
"hSbbbhhhhhkkkhkkkhbbkkBbBhssaaaauuadaajbbbbbbbzbbkkkhkhlhdfkbbSb",
"xSSbbhhkkhkhhkkkkbkkzBbf57hddddassaahj66fbbbbbbbkkkkxzhhhdfBbVHb",
"  bSbhhhhhhzkkkkkxbbks4ooo9fddfasaddf9OoO3izbbbbkbkkkkhhhdgzSb  ",
"   xzVkkkkhkkkkkbnhy2oo@@@@9gdffssdj9@%%@oO1axbbbhkkkhhhhdzzb   ",
"     hVxkkkkhxBxhr=@@===,,<,0lffddfw&,,&,==@+=whbxzhhhhhhBh     ",
"       zVkzxbbf9;&=1111122442ehfdje14424111,1==-wdxbkhhVh       ",
"        kBbhs9,,,4444666999909ahde9999946642111,==6ifkzk        ",
"          hi9690000t0tttetataaaddauatuaatttttttttt9wdk          ",
"          hnIIRJJYJJJJJJJFJNFMGxxKNJFFJJJJJKYYTTTTEEKb          ",
"        kBhhmIQ^/!!!E!E!EEEEETGllNETEEEEE!!!!E!~/!TZbbSB        ",
"      jgldffdfkJ!/)//!!~!!!!!GlxxlK!E!!!!~!///)~YbzzbbzSBb      ",
"     lldshfhhhhjxJ!)))/)////JlnbbnbK/////))))!JhhhbzbbbbbSn     ",
"   BCjpddddhhjjjhkzFE)`))))YbnnvbZnzT)))_`)EZhhkbxbbbbbbbbVSV   ",
"  BSkddddhdhhhjjbxbzzFE/))YbnnGnnFnnbE)`/JxdhhhxkzbbbbbbbbbbSb  ",
"APBbBdddddhdhjhkkkxbbbhnTYbFGMKnvJFFZnYYhsghhhhbkxzbbbbbbbbbbbPS",
"ASbbkddddddhhhjhhkzbbbbzzbFFnMKnnKJFFFhtshhhhhhzkkbbbbbbbbbbbzSV",
"ASBBkdddddhhhjjkbxzbbbbbbbNJJKYNmYJJJFfddfffhhlhbhxbbbbbbbbxbbSV",
"ASxbxdiddddhdjjhhzbbbbbbbbFKJKENFTYJJvdffdffhhxkhbbbbbbbbbbbbbSV",
"ASxbkddddhffjjjlbbbbbbbbbbnJYTEMFEYYJhifdfffhzhkbbbbbbbbbbbbbbSV",
"ASbBkdssdddfhhhjhbxzbbbbbbzJTT!MJEYEDisffffhhhhkkxlbbbbbbbbbbbSV",
"SSkbBdddddffhkhkxbbbxbbbbbznEEEJJ!RRxudsdfhhhhhkkxbbbbbbbbbbbbSV",
"BSBbkdsdddfjhhhhlhzbbbbbbbbbRE!JJ!!YiisfdfdhhhhkkzzbbbbbbbbbbbSV",
"SSkBkdssdfhhhhxzxzxbbbbbbbbkN!!YJ~!xydssdffhhhhzzxbbxbbbbbbbbbSV",
"ZSbbBdssddfhhhhhlxzbbbbbbbbbbE/JJ/RussdddfhhhllhkkbbbbbbbbbbbbSV",
"VSbBbfisfsfffhkhzhbbbbbbbbbbzF/YJ(myssddsgdhhhhkkkbbbbbbbbbbbbSV",
"VSbxzdsffffffhhkxbbbbbbbbbbbbz/YY~ypspddddhhhhkhkkbbbbbbbbbbbbSV",
"SSbbbfssidffhhhkbhlbbbbbbbbbbzTTRJtpidsdgshhhhkkkkxbbbbbbbbbbbSV",
"SSzBkfsdffffhhhkhbxbbbbbbbbbbzZTIsysisddshhhhkhkkbzbbbbbbbzbbbSV",
"BSbbkdsdddhdhkhkhbbbbbbbbbbbbbbZxyiiysddhhfhhhkkkkxbbbbbbbblbbSS",
"ZSzkhssddddhhhhkxbbbbbbbbbbbbbS  hissssdshdhhkhkkxzbbbbbbbbjhbSV",
"VSkkhdsddddhhjhkxlbbbbbbxbbbbSV  fjysssssfghhhkhkkbbbbbbxbljhbSV",
"VSkkhfsddhhhhhhkhbbbbbbbbbbbbb    ddssgdhdfhhhkkzbbbbbbbbbjjhhSS",
" njjhdssddddfhhhhhhhbxxhhkzkSb    jjyiiiidddhhfhhjhxxbxxladxxxn ",
" bjjdduuy0ww877753533<---**%3      5&%%------>3356wwwweweawdexn ",
" Vndueuwr88755>>---%%%###X.%        -.XXX%%*--->335679wwededfbV ",
"  nwdduwr888551;3---%%%##X%3        >+XX#%%%%--1>35777wweeddaV  ",
"  SVeueww777533;1--*%%%XX.*          %XX#%%%**<<>336679wwwttVS  ",
"   VVuw777643;--%%%##X.X.+7          q+..XXX%%*%%<>334777wuVS   ",
"     zlssuttte997966343<35            >3<3464699999eaaasdlz     ",
"       Vbzzzzzzzzlllzhllh              kllhhllzzzzzlzzzbb       "
};
