/* XPM */
static const char *AmiKo_xpm[] = {
/* columns rows colors chars-per-pixel */
"32 32 57 1 ",
"  c None",
". c #AE965E",
"X c #B99E5F",
"o c #B39B63",
"O c #BDA366",
"+ c #BCA46B",
"@ c #C1A667",
"# c #C4A96B",
"$ c #C3AC72",
"% c #CAB277",
"& c #CDB57A",
"* c #D0B77A",
"= c #D2B97D",
"- c #CFB980",
"; c #D5BD82",
": c #D9BF82",
"> c #D7C087",
", c #DAC286",
"< c #D7C188",
"1 c #DCC58A",
"2 c #DECA8B",
"3 c #E0C78A",
"4 c #E1CB8E",
"5 c #E3CE92",
"6 c #E6D195",
"7 c #E9D396",
"8 c #E7D399",
"9 c #EAD59B",
"0 c #EDD89E",
"q c #F0DB9F",
"w c #E9D7A4",
"e c #EED9A1",
"r c #EDDCAC",
"t c #F1DBA2",
"y c #F2DEAB",
"u c #EEDEB1",
"i c #F0DFB2",
"p c #F6E0A5",
"a c #F8E2A5",
"s c #F5E1AB",
"d c #FAE5A9",
"f c #FCE8AB",
"g c #F4E2B4",
"h c #F8E8B5",
"j c #F5E5BC",
"k c #F9E7B9",
"l c #F8E8BE",
"z c #F6E7C1",
"x c #F7E9C5",
"c c #F9EAC5",
"v c #F9EDCC",
"b c #F9F0CD",
"n c #F6EDD1",
"m c #FBEFD3",
"M c #FBF0D4",
"N c #FDF3DC",
"B c #FEF7E1",
/* pixels */
"  rkxzbbvMMMM      nnMbbbbvzch  ",
" slvvbMMNNNNB      BNNNNMMvvblh ",
" gzzzvvmMMNNNB    BBNNMMvvvvxkl ",
"tgkrrrryuuuigkg  rguuuurrrwwrkgd",
"ssr65566669979t  766666652221rgd",
"ptr56666698997r969699686665228ss",
"pt966666999990t:;9999099866449yd",
"pp96668899999t6*%5000009096649ta",
"pt06688899000t:*&1t0t000089669ta",
"pt068899999rt9:***9tt0q0009657ps",
"at9789999000t6::::6ttt0q007969pp",
"at999999000qt3,3,,30ttqrr90669pa",
"sp09999000q7143333517tttr09969pa",
" pt9990906=@X*6545*X@=6q009760p ",
"   q0095=#@###:65;##OO#*47090   ",
"     91=&===::155:::;;===190    ",
"    99rxxxxkjjitrixkxxxxzity    ",
"   7768rxmNNNmjytkmNNNmzittty   ",
" a9456999yjNBzyyyyxNNit99tttyaa ",
"fp9566899ttygigiiiiu8889ttttqqyf",
"fp945899ettttijjjzi55889qqqqqqqa",
"dt9555899ttttivzzcr5588e0qyqqyyd",
"ft7459999etttyczcc8558890qqyqqqa",
"dp6655999tetttjvci4458890qqqyqyf",
"ft946669ttttttyvx83558880tttttty",
"ft9466699tttettju35558800qttt0yd",
"fq7566999ttttttd833588800ttty0qa",
"fq5566609rtyttt  545588eqttt000a",
"d9511<1<;;;;;;5  1&&---::155459y",
" 91,;&%$$+oo.o    ..ooo$%%*=:30 ",
" a5;=%$++oo..      ..oo++%%=:7q ",
"   74411;;&&&      &*-;;::447   "
};
