/* XPM */
static const char *CoMed_xpm[] = {
/* columns rows colors chars-per-pixel */
"64 64 196 2 ",
"   c #A68F55",
".  c #A79055",
"X  c #AD9456",
"o  c #AB955C",
"O  c #AE985F",
"+  c #A7925D",
"@  c #B29556",
"#  c #B59959",
"$  c #B99D5E",
"%  c #BAA05F",
"&  c #AE9860",
"*  c #A7976C",
"=  c #A49263",
"-  c #B39C63",
";  c #BC9F60",
":  c #A29673",
">  c #B7A067",
",  c #BDA263",
"<  c #BBA46B",
"1  c #BEA86F",
"2  c #BFAA71",
"3  c #C1A666",
"4  c #C3A768",
"5  c #C4AA6C",
"6  c #C8AE6F",
"7  c #C3AC73",
"8  c #C9AF71",
"9  c #C2AF7A",
"0  c #C6B076",
"q  c #CCB275",
"w  c #C5B17B",
"e  c #CCB57B",
"r  c #CFB97F",
"t  c #D0B777",
"y  c #D0B679",
"u  c #D3BA7C",
"i  c #7B8DAC",
"p  c #7F91AF",
"a  c #7B8FB2",
"s  c #7E92B5",
"d  c #7C91B8",
"f  c #98988E",
"g  c #969B9D",
"h  c #90969B",
"j  c #A8A28B",
"k  c #A9A693",
"l  c #A5A59B",
"z  c #B0A991",
"x  c #BDB79F",
"c  c #B6B19F",
"v  c #818FA6",
"b  c #8C96A4",
"n  c #8696AE",
"m  c #969DA2",
"M  c #939DAA",
"N  c #8596B2",
"B  c #8897B0",
"V  c #8898B0",
"C  c #8196BA",
"Z  c #8599BC",
"A  c #899CBA",
"S  c #9EA2A3",
"D  c #9FACBF",
"F  c #98A4B3",
"G  c #A2A6A3",
"H  c #ACAEA9",
"J  c #B3AFA0",
"K  c #AEB2AF",
"L  c #B5B7AF",
"P  c #BBBBAC",
"I  c #A9AFB2",
"U  c #ADB3B6",
"Y  c #ACB5BC",
"T  c #B8BCBB",
"R  c #C9B581",
"E  c #CDB984",
"W  c #D4BD82",
"Q  c #D9BF82",
"!  c #D2BE89",
"~  c #C9BF9F",
"^  c #C6BC98",
"/  c #C3BCA2",
"(  c #C1BCAA",
")  c #BDC0BB",
"_  c #D7C086",
"`  c #DAC285",
"'  c #DCC886",
"]  c #D4C08C",
"[  c #DCC58B",
"{  c #DEC98B",
"}  c #CEC19A",
"|  c #D8C490",
" . c #DFCC90",
".. c #DCCB9C",
"X. c #D3C392",
"o. c #E1CC8E",
"O. c #E8D18E",
"+. c #E3CE92",
"@. c #E1CF9B",
"#. c #E5D195",
"$. c #EAD395",
"%. c #EFD896",
"&. c #E7D398",
"*. c #EAD59B",
"=. c #EDD89F",
"-. c #F4DC9D",
";. c #F8DF9F",
":. c #F3DA97",
">. c #CAC1A2",
",. c #C5C0AB",
"<. c #CEC8AB",
"1. c #D2C7A2",
"2. c #D2C8A7",
"3. c #DACDA3",
"4. c #DBCFAC",
"5. c #DCD0AE",
"6. c #C5C3B4",
"7. c #CDC9B3",
"8. c #C4C4BB",
"9. c #C8C7BC",
"0. c #D8D0B6",
"q. c #E7D5A0",
"w. c #EAD7A1",
"e. c #EED9A1",
"r. c #EEDCAA",
"t. c #E3D5AA",
"y. c #F2DCA3",
"u. c #F8DFA0",
"i. c #F2DEAA",
"p. c #E4D9B6",
"a. c #E6DBBB",
"s. c #E9DDBD",
"d. c #E2D5B0",
"f. c #F1DFB0",
"g. c #F6E0A6",
"h. c #FAE1A1",
"j. c #F5E0AC",
"k. c #FAE4AC",
"l. c #F4E2B4",
"z. c #FAE6B5",
"x. c #F5E5BB",
"c. c #F8E7BF",
"v. c #FFEAB6",
"b. c #859BC3",
"n. c #889EC4",
"m. c #8BA1C7",
"M. c #8CA4CE",
"N. c #9DADC2",
"B. c #91A7CC",
"V. c #94A9CE",
"C. c #99ADCD",
"Z. c #93A6C3",
"A. c #8EA7D1",
"S. c #93ABD3",
"D. c #99AFD4",
"F. c #95AED9",
"G. c #9BB0D4",
"H. c #A3B1C3",
"J. c #A9B6C8",
"K. c #B4BCC5",
"L. c #BAC0C3",
"P. c #C4C6C1",
"I. c #E9DFC1",
"U. c #E2DECF",
"Y. c #EDE1C1",
"T. c #F5E6C2",
"R. c #F8E7C1",
"E. c #F7E8C4",
"W. c #F9EAC5",
"Q. c #FAEDCE",
"!. c #FAECCB",
"~. c #FDF0CF",
"^. c #EFEAD8",
"/. c #FAEFD3",
"(. c #FAEED1",
"). c #FBEFD4",
"_. c #FCEFD2",
"`. c #F2ECD9",
"'. c #FEF0D1",
"]. c #FDF1D6",
"[. c #FDF0D6",
"{. c #FDF1D8",
"}. c #FFF3D9",
"|. c #FDF3DA",
" X c #FFF5DA",
".X c #FEF3DD",
"XX c #FDF2DD",
"oX c #FFF5DD",
"OX c #FFF5DF",
"+X c #FEF3DB",
"@X c #FFF8DD",
"#X c #FFF6E1",
"$X c #FFF6E2",
"%X c #FFF8E2",
"&X c #FFF9E4",
"*X c #FFF9E9",
/* pixels */
"D.D.D.D.D.D.D.D.D.D.D.D.D.G.D.D.G.D.D.D.D.D.D.D.D.D.D.D.D.D.D.D.D.D.D.D.D.D.D.D.D.D.D.D.D.D.D.D.D.D.D.D.D.D.D.D.D.D.D.D.D.D.D.D.",
"D.D.D.D.D.D.D.D.D.D.D.G.D.D.D.D.G.G.D.D.D.D.D.D.D.D.D.D.D.D.D.D.D.D.D.D.D.D.D.D.D.D.D.D.D.D.D.D.D.D.D.D.D.G.D.D.D.D.D.D.D.D.D.D.",
"D.D.D.D.D.D.D.D.D.D.G.G.D.D.D.D.G.S.D.G.D.G.G.D.D.D.D.D.D.D.D.D.D.D.D.D.D.G.D.D.G.D.D.G.D.G.G.D.G.G.D.D.G.G.G.G.D.D.D.D.D.D.D.D.",
"D.D.D.D.D.D.D.D.D.D.G.S.F.D.D.D.G.G.F.F.D.F.D.D.D.D.G.D.D.D.D.D.D.D.D.D.D.G.G.F.G.F.D.G.D.F.G.D.D.F.D.D.S.G.G.F.D.D.D.D.D.D.D.D.",
"D.D.D.D.D.D.D.D.G.F.S.C.C.C.C.C.C.C.C.C.C.C.C.C.C.C.S.G.F.G.D.D.D.D.D.D.G.F.C.C.V.V.C.C.C.C.C.C.C.C.C.G.C.S.S.G.D.D.D.D.D.D.D.D.",
"D.D.D.D.D.D.D.G.S.Y <.d.p.p.p.a.p.a.a.s.s.s.s.Y.I.Y.P.B.G.G.D.D.D.D.D.D.S.) s.a.a.a.s.a.s.s.s.s.s.s.s.s.s.0.K.S.D.D.D.D.D.D.D.D.",
"D.D.D.D.D.D.D.S.,.j.W.!.Q.Q.'.].].}.{.OXXXOXOX%X#X&X}.H.S.G.D.D.D.D.G.D.J.].@X%X%X%X@X@X X|. X].].'.'.~.!.W.v.7.V.G.D.D.D.D.D.D.",
"D.D.D.D.D.G.S.,.k.!.W.!.W.!.Q.Q.(.(.[.).[.{.{..X.X{.%X^.B.G.D.D.D.D.F.V.U.%X|.OXXX{.{.]././././.Q.Q.!.W.W.T.W.v.7.S.G.D.D.D.D.D.",
"D.D.D.D.G.F.Y y.R.c.T.W.W.!.!.!.(.(.(.).).{.{.{.XXXXXX$XL.A.G.G.D.G.S.L.@X@XXXXX|.|.].[./././.(.Q.!.E.!.W.T.c.T.k.Y S.F.G.G.G.G.",
"D.D.D.G.G.S.1.z.x.c.c.E.!.!.!.Q.(.).).{.{..X.X.XXX$X$X$X`.C.D.G.D.D.D.^.&X%X%XXXXXXX|.|.{.{././.Q.Q.Q.Q.W.c.c.x.z.4.V.G.G.F.G.S.",
"D.D.G.G.F.N.w.x.l.x.x.x.f.x.x.x.c.c.T.T.R.R.T.E.E.E.W.E.!.( B.G.G.S.) W.T.T.T.T.T.T.T.x.x.x.x.x.l.x.l.f.l.W.x.l.l.g.D S.G.D.G.G.",
"D.D.F.G.S.U y.l.l.x.e.+.+.o.+.+.+.+.+.#.#.#.#.&.&.&.*.$.w.e.H.D.F.H.o.o.o. .+.+.o.o. . . . .{ ' ' ' ' ' ' &.x.l.l.k.U S.G.D.D.D.",
"D.D.D.G.F.L g.j.l.r.{ +.#.#.#.#.&.&.@.&.&.$.*.*.&.*.*.w.*.=.~ V.F.} $.#.#.&.#.&.&.&.#.#.#.#.+.+. . .{ { { ' e.l.j.k.P A.G.D.D.D.",
"D.D.D.G.A.P g.r.k.w.#.+.+.#.#.#.$.&.$.&.&.$.&.*.*.*.*.*.=.=.u.J.Y $.#.#.&.&.*.&.&.*.&.#.#.#.#.#. .+.{ { { ' *.l.j.h.P A.G.D.D.D.",
"G.G.D.G.S.P -.j.j.w.#.#.#.#.#.#.$.&.&.&.&.&.*.*.*.*.=.*.=.=.-...X.*.&.*.*.*.*.*.*.*.*.*.*.#.#.#.#.o.#.{ { ' *.l.r.h./ M.G.D.D.D.",
"G.S.G.G.S.P -.y.j.w.{ #.#.#.#.#.&.&.&.&.&.*.*.*.*.*.=.w.=.=.*.u e #.*.*.*.*.*.*.*.*.*.*.*.*.*.&.#.#.#. .o.' &.j.e.h.P M.G.D.D.D.",
"S.G.G.G.S.P -.e.j.*.#.#.#.#.&.&.&.&.&.&.*.*.*.*.w.*.=.=.=.y.[ q 8 ` e.&.=.=.=.=.=.=.=.=.=.&.=.$.&.&.#.o.o.{ &.g.w.h.( M.G.G.G.F.",
"C.G.S.G.S.P h.e.y.*.#.#.#.#.&.&.&.$.*.*.*.*.*.*.*.w.=.=.=.y.y q q q w.=.=.=.=.e.=.=.=.=.w.=.&.&.&.&.#.#.#.{ &.g.e.h.P A.G.G.G.G.",
"G.D.D.G.A.P -.y.e.*.#.&.&.&.&.&.&.&.*.*.*.*.*.=.=.=.=.=.y.@.6 y e 4 +.e.=.=.e.e.=.=.=.=.=.=.&.=.*.&.&.#.o.o.&.g.e.h.P B.G.S.G.S.",
"G.D.D.G.F.P h.e.-.*.#.&.&.&.&.&.*.*.*.*.*.*.*.=.=.=.e.e.y.Q 6 Q u 8 Q y.w.w.e.e.e.w.e.w.=.=.=.=.*.*.&.&.#. .&.e.e.h.( M.G.G.G.G.",
"G.G.G.G.A.P -.e.y.*.#.&.&.&.&.&.*.*.*.*.=.*.=.=.=.e.e.y.:.u y Q u q t *.e.e.y.e.y.e.e.e.=.=.=.=.*.*.&.&.#. .&.g.e.h.( M.G.G.G.G.",
"S.G.F.G.F.P h.e.g.*.&.&.&.*.&.&.*.*.w.*.*.=.=.=.=.e.=.y.[ u u Q W e u ' y.e.y.e.e.y.y.e.y.=.=.=.*.*.*.&.*.+.&.g.y.h.( M.G.G.D.G.",
"G.G.G.G.F.P h.e.y.*.&.&.&.*.*.=.*.*.*.*.=.=.=.=.e.e.y.-.Q Q Q Q Q W Q ` w.u.-.y.y.y.y.=.e.e.e.=.=.*.*.*.#.+.*.y.e.h.( M.G.D.D.D.",
"S.G.F.G.A.P h.e.g.*.&.&.&.*.&.*.=.*.*.=.=.=.=.e.-.e.y.$.[ [ Q ` ` Q ` ` +.y.e.y.y.y.y.y.y.e.=.=.*.*.*.*.&.+.*.-.e.h.( M.G.D.D.D.",
"G.D.D.G.S.P u.e.y.w.&.*.&.=.&.&.*.*.w.=.=.=.e.e.e.=.y.o.[ [ [ ` ` ` Q o.o.e.e.e.y.y.y.y.e.e.=.=.*.=.=.&.&.+.*.y.y.u.( B.G.D.D.D.",
"G.G.D.G.S.P u.e.y.e.&.*.*.&.=.=.*.=.=.=.=.e.=.y.y.k.-.o.+.[ [ o.[ [ o.o.o.=.i.u.y.y.y.y.y.e.y.e.w.&.=.&.&.#.$.y.e.g.( M.G.D.D.D.",
"D.D.D.G.S.K u.u.e.=.&.*.&.=.*.*.*.=.=.=.e.e.y.g.=.u q &.+.+.o.o.{ [ +.+.$.y y =.g.u.y.e.e.y.=.=.=.*.=.&.&.#.*.y.u.h.H B.G.D.D.D.",
"D.D.D.D.G.b.M ..h.=.&.*.=.=.=.=.=.=.=.e.y.y.*.t $ @ @ q $.$.o.+.+.+.+.#.y @ @ $ e &.j.y.e.=.e.=.*.=.=.&.&.+.*.h.3.m C D.D.D.D.D.",
"D.D.D.D.D.G.m.n J =.=.*.*.*.=.*.=.=.g.e.#.q $ # $ ; 3 $ y $.O.+.o.+.&.W ; , , ; # $ q  .y.y.e.e.=.=.&.&.&.$.$.c i n.D.D.D.D.D.D.",
"D.D.D.D.D.D.G.S.b.b } -.e.*.=.=.g.e.{ q , % 3 4 4 4 4 5 4 Q *.$.o.&.Q 4 4 4 4 4 4 , % ; 8 { e.e.e.=.&.*.:.^ b d V.G.D.D.D.D.D.D.",
"D.D.D.D.D.D.C.G.G.B.s l &.:.=.*.' q , , 5 6 6 8 q q q t y q o.$.@.[ q y q q 8 8 8 6 6 5 < , 8 _ &.*.:.#.l i m.G.G.D.D.D.D.D.D.D.",
"D.D.D.D.D.D.G.S.G.G.F.b.n P O.e 6 q t e t u u u u Q ` ` ` o.u +.+.Q [ Q Q Q Q Q Q u u u u u t q t o.x p C D.G.D.D.D.D.D.D.D.D.D.",
"D.D.D.D.D.D.D.D.G.D.S.F.V.x *.x.E.R.l.x.x.x.x.l.x.l.l.l.l.l.l.e.e.f.f.f.f.f.R.x.x.x.x.c.x.E.W.~.c.j.>.m.F.G.G.G.G.D.D.D.D.D.D.D.",
"D.D.D.D.D.D.D.G.D.F.F.) @.%.#.*.l.(.#X{.(.].).(.Q.Q.Q.Q.W.Q.x.=.i.f.Q.!._.Q._._././.].].}. X~.x.g.e.h.e.L.S.S.G.D.D.D.D.D.D.D.D.",
"D.C.D.D.D.D.G.G.S.J.1.O.+.#.&.&.#.=.l.Q.#X#XOX{.[.].].).].x.y.e.y.y.R.{.).).).{.|.|.%X%X(.f.=.=.y.y.e.g.h.4.J.S.D.G.G.G.D.D.D.D.",
"D.G.D.D.D.G.S.G.) &.O.+. .#.#.&.*.&.*.*.l.(.$X&X&X#X#X&XT.y.i.e.y.i.y.W.$X$X$X$X*X%X!.r.*.*.e.y.y.e.g.e.e.h.e.8.S.S.G.G.D.D.D.D.",
"D.D.D.D.F.F.J.5.h.*. . .#.#.#.#.&.*.*.e.=.-.i.!.#X*X*X!.y.i.l.i.y.l.j.y.!.*X*X$XT.w.*.$.*.=.e.y.y.y.y.y.g.=.y.;.t.J.S.G.D.D.D.D.",
"D.D.D.G.F.) h.-.y.*. .o.o.#.&.*.*.*.=.e.e.y.e.y.i.W.!.y.j.l.x.i.i.x.l.j.i.!.x.&.+.#.*.*.*.=.e.e.y.y.y.y.y.y.y.=.-.h.) S.G.D.D.D.",
"G.G.D.G.S.6.h.e.-.#. .+.#.#.&.#.&.&.=.=.e.y.y.y.y.-.y.l.l.l.c.f.f.c.l.l.l.w.' +.&.&.*.*.*.w.e.y.y.y.y.y.y.y.y.g.y.h.,.M.G.D.D.D.",
"S.G.S.G.S.6.h.w.g.*.o.#.o.#.#.*.*.=.&.=.e.y.y.y.y.y.y.l.x.c.R.l.l.R.c.c.l.+.+.&.#.&.&.*.=.=.e.e.y.y.-.y.y.-.y.y.y.h.,.M.G.D.D.D.",
"G.G.D.G.S.6.h.w.y.&.{ o.#.#.#.&.*.*.*.e.e.y.g.=.y.y.y.l.c.R.E.l.l.E.T.E.r.{ #.#.#.&.*.*.*.e.e.y.y.y.y.y.y.y.u.y.y.h.,.M.G.G.D.D.",
"G.G.G.G.A.6.h.y.g.&. .#.o.#.&.&.&.*.*.e.e.y.y.y.y.y.y.y.T.E.!.x.x.!.E.E.#. .+.#.#.&.#.*.*.*.e.e.y.y.y.y.y.y.y.y.e.h.,.M.G.G.D.D.",
"S.G.S.G.S.6.h.e.-.&.{  .o.#.&.&.*.*.*.=.=.y.y.y.y.y.y.-.x.Q.Q.c.x.(.(.l.{ #.+.#.#.&.*.*.*.=.w.y.y.y.y.y.y.y.y.y.y.h.,.M.G.D.D.D.",
"G.G.G.G.S.6.h.e.g.*. .#.#.#.#.&.*.*.*.=.=.y.y.y.y.y.y.e.i.Q.].c.x.).(.&.' +.+.#.#.#.&.*.=.=.=.y.y.y.y.u.y.y.y.y.e.g.,.A.G.D.D.D.",
"D.D.D.G.S.6.h.w.y.*.{ #.#.#.#.&.*.*.*.*.e.y.y.y.y.y.y.u.y.W.{.T.T..XT.' +.+.{ #.&.*.#.*.*.*.e.e.y.y.y.y.y.y.y.y.y.h.( A.G.G.D.D.",
"D.D.D.G.S.) h.e.-.*. .o.#.#.#.#.*.*.e.e.y.y.y.y.y.y.y.y.-.j.OXW.R..Xq.{  .+.#.#.#.#.*.*.*.=.e.y.y.y.y.y.y.y.y.y.y.h.( M.G.G.D.D.",
"D.D.D.G.S.6.h.y.g.&.o.#. .#.#.*.*.*.*.e.e.-.y.y.y.y.y.y.y.e.Q.W.T.(.[ { o.+.#.#.#.#.*.*.*.=.e.e.y.y.y.u.u.y.y.y.y.u.,.A.G.D.D.D.",
"D.D.D.F.F.6.h.e.y.*.o.o.+.#.#.&.*.*.*.=.=.y.y.y.y.y.y.y.y.-.x.!.!.r.' { +.+.{ #.&.*.&.*.*.w.e.y.y.y.y.y.y.y.y.y.y.h.,.A.G.D.D.D.",
"D.D.D.G.A.6.h.e.y.=.+.+.+.#.&.&.*.*.*.=.=.y.g.=.y.y.g.-.y.y.y.W.c. .' o.{ #.{ #.&.&.$.=.*.=.w.y.y.y.y.y.y.y.y.y.y.u.( A.G.G.D.D.",
"D.D.D.G.A.6.h.e.y.&.{ +.+.#.#.&.*.*.=.=.e.e.=.g.y.y.y.e.y.y.y.r.&.' o.{ #.{ #.#.&.&.$.w.*.=.e.y.y.y.y.y.y.y.w.y.y.u.( A.G.G.D.D.",
"D.D.D.G.S.6.h.y.=.#.+.+.+.#.&.&.*.*.*.=.=.g.=.=.-.y.y.e.y.y.h.S g o.{ o.{ #.#.#.#.&.$.&.*.w.e.y.y.y.y.y.y.y.e.e.e.u.( A.G.D.D.D.",
"D.D.G.G.S.) ;.=.*.+.o.+.+.#.#.&.*.*.*.*.e.y.e.g.e.y.y.y.e.h.1.s m.} o.{  .{ { #.+.&.$.*.*.=.w.y.y.y.y.y.y.y.*.&.w.u.( A.G.D.D.D.",
"D.D.D.G.A.U -.*.$.@.+.+.#.#.$.*.*.*.=.e.e.g.g.g.g.g.g.g.k.u.M V.S.F ' #.#.#.#.&.=.=.=.*.=.=.y.y.y.u.u.i.y.=.+.#.*.u.K A.G.G.D.D.",
"D.D.D.G.F.N.=.#.+. .{ ' [ ] _ _ _ E _ r E E e e w e w 0 q z Z G.C.M.k 1 2 7 8 0 9 0 e r E E Q W ] [ [ [ | [ +.+.&.y.F S.G.G.D.D.",
"D.D.D.D.G.m.3.$.+.| [ _ W W r e 0 0 1 < < > & - O o . . + n S.G.D.D.A + . + o & - - > < < 7 7 7 0 r r W ` [  .+.$.3.A G.D.D.D.D.",
"D.D.D.D.G.S.U :.o.| ] _ W r e 0 0 7 7 1 < < > > - O o o f m.G.S.D.G.S.g X o & - - - > < 1 7 7 9 0 r r W Q ] [ | :.H M.G.D.D.D.D.",
"D.D.D.D.D.G.n./ %.W Q W E e e 0 0 2 1 < > > - & O O X * N D.D.D.D.D.D.m.: . O O - - - ; 1 1 7 7 0 w e u W Q Q $./ C G.D.D.D.D.D.",
"D.D.D.D.D.D.D.Z / $.Q u e q 8 7 1 1 < > > O O o . . X h M.G.D.D.D.D.D.F.M X . . o & - - - ; < 5 7 8 0 e y Q $.~ n V.D.D.D.D.D.D.",
"D.D.D.D.D.D.G.C.C G ~ | ! ! ! ! E E E R e w w w 2 w j Z G.G.D.D.D.D.D.G.m.k 0 2 9 9 R e E E E E ! ! ! ! ! 1.G a B.D.D.D.D.D.D.D.",
"D.D.D.D.D.D.D.G.D.n.C B B n N N n n n V N V V V V A C S.D.D.D.D.D.D.D.D.D.m.V A B B B B C B B B B B n n n C b.D.D.D.D.D.D.D.D.D.",
"D.D.D.D.D.D.D.D.D.G.G.S.S.S.S.V.V.S.V.V.S.V.V.V.V.S.D.D.D.D.D.D.D.D.D.D.D.D.V.S.V.V.S.V.S.V.S.V.S.S.D.V.D.D.G.D.D.D.D.D.D.D.D.D.",
"D.D.D.D.D.D.D.D.D.D.D.G.D.D.G.D.G.G.G.G.G.G.G.G.G.D.D.D.D.D.D.D.D.D.D.D.D.D.G.D.G.G.G.G.D.D.D.D.D.D.D.D.D.D.D.D.D.D.D.D.D.D.D.D.",
"D.D.D.D.D.D.D.D.D.D.D.D.D.D.D.D.D.D.D.D.D.D.D.D.D.D.D.D.D.D.D.D.D.D.D.D.D.D.D.D.D.D.D.D.D.D.D.D.D.D.D.D.D.D.D.D.D.D.D.D.D.D.D.D.",
"D.D.D.D.D.D.D.D.D.D.D.D.D.D.D.D.D.D.D.D.D.D.D.D.D.D.D.D.D.D.D.D.D.D.D.D.D.D.D.D.D.D.D.D.D.D.D.D.D.D.D.D.D.D.D.D.D.D.D.D.D.D.D.D."
};
