/* XPM */
static char *CoMed_xpm[] = {
/* columns rows colors chars-per-pixel */
"64 64 187 2 ",
"   c #A68F55",
".  c #A79055",
"X  c #AD9456",
"o  c #AB955C",
"O  c #AE985F",
"+  c #A7925D",
"@  c #B29556",
"#  c #B59959",
"$  c #B99D5E",
"%  c #BAA05F",
"&  c #AE9860",
"*  c #A7976C",
"=  c #A49263",
"-  c #B39C63",
";  c #BC9F60",
":  c #A29673",
">  c #B7A067",
",  c #BDA263",
"<  c #BBA46B",
"1  c #BEA86F",
"2  c #BFAA71",
"3  c #C1A666",
"4  c #C3A768",
"5  c #C4AA6C",
"6  c #C8AE6F",
"7  c #C3AC73",
"8  c #C9AF71",
"9  c #C2AF7A",
"0  c #C6B076",
"q  c #CCB275",
"w  c #C5B17B",
"e  c #CCB57B",
"r  c #CFB97F",
"t  c #D0B777",
"y  c #D0B679",
"u  c #D3BA7C",
"i  c #7B8DAC",
"p  c #7F91AF",
"a  c #7B8FB2",
"s  c #7E92B5",
"d  c #7C91B8",
"f  c #98988E",
"g  c #969B9D",
"h  c #90969B",
"j  c #A8A28B",
"k  c #A9A693",
"l  c #A5A59B",
"z  c #B0A991",
"x  c #B6B19F",
"c  c #BDB79F",
"v  c #818FA6",
"b  c #8C96A4",
"n  c #8696AE",
"m  c #969DA2",
"M  c #939DAA",
"N  c #8596B2",
"B  c #8897B0",
"V  c #8898B0",
"C  c #8196BA",
"Z  c #8599BC",
"A  c #899CBA",
"S  c #9EA2A3",
"D  c #9FACBF",
"F  c #98A4B3",
"G  c #A2A6A3",
"H  c #ACAEA9",
"J  c #B3AFA0",
"K  c #AEB2AF",
"L  c #B5B7AF",
"P  c #BBBBAC",
"I  c #A9AFB2",
"U  c #ADB3B6",
"Y  c #ACB5BC",
"T  c #BDBFB5",
"R  c #BBBFBE",
"E  c #B3B9BC",
"W  c #C9B581",
"Q  c #CDB984",
"!  c #D4BD82",
"~  c #D9BF82",
"^  c #D2BE89",
"/  c #CCBF96",
"(  c #C9BF9F",
")  c #C3BA9A",
"_  c #C3BCA2",
"`  c #C1BCAA",
"'  c #BDC0BB",
"]  c #D7C086",
"[  c #DAC285",
"{  c #DCC886",
"}  c #D4C08C",
"|  c #DCC58B",
" . c #DEC98B",
".. c #CEC19A",
"X. c #D8C490",
"o. c #DFCC90",
"O. c #DCCB9C",
"+. c #D3C392",
"@. c #E1CC8E",
"#. c #E8D18E",
"$. c #E3CE92",
"%. c #E1CF9B",
"&. c #E5D195",
"*. c #EAD395",
"=. c #EFD896",
"-. c #E7D398",
";. c #EAD59B",
":. c #EDD89F",
">. c #F4DC9D",
",. c #F8DF9F",
"<. c #F3DA97",
"1. c #CAC1A2",
"2. c #C5C0AB",
"3. c #CEC8AB",
"4. c #D2C7A2",
"5. c #D2C8A7",
"6. c #DACDA3",
"7. c #DBCFAC",
"8. c #DCD0AE",
"9. c #C5C3B4",
"0. c #CDC9B3",
"q. c #C4C4BB",
"w. c #C8C7BC",
"e. c #D8D0B6",
"r. c #E7D5A0",
"t. c #EAD7A1",
"y. c #EED9A1",
"u. c #E3D5AA",
"i. c #EEDCAA",
"p. c #F2DCA3",
"a. c #F8DFA0",
"s. c #F2DEAA",
"d. c #E4D9B6",
"f. c #E6DBBB",
"g. c #E9DDBD",
"h. c #E2D5B0",
"j. c #F1DFB0",
"k. c #F6E0A6",
"l. c #FAE1A1",
"z. c #F5E0AC",
"x. c #FAE4AC",
"c. c #F4E2B4",
"v. c #FAE6B5",
"b. c #FFEAB6",
"n. c #F5E5BB",
"m. c #F8E7BF",
"M. c #859BC3",
"N. c #889EC4",
"B. c #8BA1C7",
"V. c #8CA4CE",
"C. c #9DADC2",
"Z. c #91A7CC",
"A. c #94A9CE",
"S. c #99ADCD",
"D. c #93A6C3",
"F. c #8EA7D1",
"G. c #93ABD3",
"H. c #99AFD4",
"J. c #95AED9",
"K. c #9BB0D4",
"L. c #A3B1C3",
"P. c #ADB8C6",
"I. c #A5B5CB",
"U. c #ACB8C8",
"Y. c #AAB6C8",
"T. c #B4BCC5",
"R. c #BAC0C3",
"E. c #C6C8C2",
"W. c #C1C4C0",
"Q. c #E9DFC1",
"!. c #E2DECF",
"~. c #EDE1C1",
"^. c #F5E6C2",
"/. c #F8E7C1",
"(. c #F7E8C4",
"). c #F9EAC5",
"_. c #FAECCC",
"`. c #FDF0CF",
"'. c #EFEAD8",
"]. c #FBEFD2",
"[. c #F2ECD9",
"{. c #FDF1D5",
"}. c #FEF3DB",
"|. c #FFF8DD",
" X c #FFF6E2",
".X c #FFF8E3",
"XX c #FFF9E9",
/* pixels */
"H.H.H.H.H.H.H.H.H.H.H.H.H.K.H.H.J.K.K.H.H.H.H.H.H.H.H.H.H.H.H.H.H.K.H.H.H.H.H.H.K.K.K.K.G.K.H.H.H.H.H.H.G.K.K.K.K.K.H.H.H.H.H.H.",
"H.H.H.H.H.H.H.H.H.H.H.K.H.H.H.H.K.K.H.H.H.H.H.H.H.H.H.H.H.H.H.H.K.G.H.H.H.H.H.H.S.J.J.K.S.K.H.K.H.H.H.H.K.K.K.G.H.H.H.H.H.H.H.H.",
"H.H.H.H.H.H.H.H.H.H.K.K.H.H.H.H.G.K.G.K.H.H.H.K.H.H.H.H.H.H.H.H.K.K.K.H.H.K.H.H.K.K.K.J.K.K.K.K.G.K.H.H.K.K.K.K.H.H.H.H.H.H.H.H.",
"H.H.H.H.H.H.H.H.H.H.K.G.J.H.H.H.K.K.K.K.H.H.H.J.H.H.K.H.H.H.H.H.K.G.K.H.H.K.J.K.J.K.K.K.K.J.G.K.K.H.H.H.G.K.K.K.H.H.H.H.H.H.H.H.",
"H.H.H.H.H.H.H.H.K.J.G.S.S.S.S.S.S.S.S.S.S.S.S.S.S.S.G.G.K.K.K.K.K.J.J.K.K.G.S.S.S.S.S.S.S.S.S.S.H.S.S.S.K.H.G.K.H.H.H.K.H.H.H.H.",
"H.H.H.H.H.H.H.K.J.Y 3.h.d.d.d.f.d.f.f.f.f.Q.f.~.Q.~.W.S.K.H.K.G.K.K.K.K.G.R.g.f.f.f.f.f.g.g.g.g.~.f.g.g.f.e.T.G.H.H.H.K.H.H.H.H.",
"H.H.H.H.H.H.H.G.2.z.)._._._.{.{.{.}.}.}.}.}.}..X X.X}.L.G.K.G.K.S.K.K.G.Y.}..X|..X|.|.}.|.}.}.{.{.{.{._._.).v.0.S.G.G.K.H.H.H.H.",
"H.H.H.H.H.K.G.2.x._.).)._._._._.].].{.].}.}.}.[.}.}..X'.S.G.K.K.K.J.G.S.!..X}.}.}.}.[.}.].].].]._._._.).).).).v.0.G.K.H.H.H.H.H.",
"S.J.S.J.K.J.Y p./.n.(./._.(._._.].].].].].}.}.}.}. X}.}.R.F.K.K.K.K.G.R.|.|.}.}.[.}.}.{.].].]._._._._._.).).n./.v.Y G.J.K.K.K.K.",
"K.K.K.K.K.G.5.v.n.n./.)._._._._.].].].}.}.}. X}.}. X X X[.S.H.K.J.S.S.'..X.X.X X}.}.}.}.|.{.].]._._._._.(.(.n.n.v.7.S.K.K.G.K.G.",
"K.K.K.K.J.C.t.c.n.n.n.n.j.n.n.n.n././././././././.(._._._.` F.K.K.G.q.).^.^.^.(././.n./.n.n.n.g.g.c.c.j.c./.v.c.c.z.D G.H.K.K.K.",
"K.J.J.K.G.U p.c.c.c.p.$.$.$.$.$.$.$.$.$.$.&.-.-.*.%.-.-.;.p.L.H.J.L.@.@.@.@.@.@. .&. .o.@.@.@. . .{ { {  .-.m.c.c.l.U G.K.K.K.G.",
"K.K.K.K.F.L z.z.c.s. .@.&.&.&.&.&.-.-.-.-.-.-.:.-.-.p.-.y.*.( A.G.1.*.&.&.&.&.;.-.-.&.&.&.&.&.@.$. . . .{ { t.c.z.x.P G.K.H.H.H.",
"J.S.K.K.G.P k.s.c.t.&.&.$.&.&.&.*.-.-.-.-.-.-.-.-.t.:.t.y.y.a.P.L.*.&.&.-.-.:.-.-.-.-.-.-.&.&.&.$. .@. . .{ :.c.i.l.P Z.K.K.H.H.",
"K.K.J.S.G.P >.z.z.t.$.&.&.&.&.&.*.-.-.-.:.-.-.:.-.-.-.:.*.y.y.O.+.:.&.&.:.-.:.-.-.-.:.&.-.&.-.&.&.@.@.@.@.{ -.c.s.l.` V.K.H.H.H.",
"G.K.K.K.G.P >.p.z.:. .&.&.&.&.&.-.-.-.:.-.-.-.-.p.p.-.:.:.:.:.u t &.:.:.-.:.:.-.t.:.-.:.:.-.-.-.&.&.&.$.@. .-.z.t.l.P V.K.H.H.H.",
"K.K.K.K.G.P >.t.k.:.&.&.&.&.-.-.-.-.:.&.:.;.;.-.;.t.<.y.;.y.| 8 q [ p.-.t.-.t.-.p.-.t.-.-.:.:.-.;.&.$.$.@. .-.p.p.k.c Z.S.K.K.J.",
"G.K.K.K.G.P l.t.p.-.$.&.&.&.-.-.-.-.-.&.;.;.-.:.;.t.t.t.y.y.y y q q t.:.>.:.p.:.:.:.p.:.>.:.-.-.;.&.&.&.@.@.;.p.p.>.' V.K.J.K.S.",
"K.H.H.S.G.P ,.p.p.:.&.&.&.-.-.-.:.&.:.;.:.-.:.:.<.t.y.y.y.;.6 y e 5 $.t.t.p.t.>.t.>.t.:.t.:.-.:.-.-.;.$.&.@.;.p.p.>.' V.K.K.K.K.",
"K.K.H.K.G.P >.p.p.:.&.-.-.-.-.-.&.:.-.:.-.:.-.:.t.y.y.y.p.~ 8 ~ t 5 [ t.>.t.:.p.p.t.>.t.:.:.:.:.:.-.$.;.@.@.;.p.p.k.1.V.K.K.S.J.",
"H.H.K.K.F.P >.t.p.:.&.-.-.-.-.-.-.-.:.-.:.-.:.:.t.y.y.y.<.~ y ~ t e t -.p.p.p.p.p.p.p.:.:.:.:.t.-.:.-.-.;.$.;.p.>.,.P Z.K.K.K.K.",
"H.H.H.K.J.T ,.p.p.:.&.&.-.-.-.:.:.:.-.:.:.:.:.t.y.y.y.y.| y y ~ [ t t @.p.p.p.t.p.t.>.p.p.p.:.-.p.-.y.-.;.$.;.p.t.,.P B.K.K.K.J.",
"H.H.K.K.G.P >.p.p.:.-.&.:.-.-.-.:.-.:.-.:.:.:.:.y.y.p.y.~ ~ ~ ~ ~ ! ~ [ -.p.p.p.p.p.t.p.t.t.p.:.-.:.-.-.&.$.;.p.k.,.P Z.K.K.K.S.",
"H.H.J.K.G.P k.p.p.:.&.-.*.:.:.-.-.:.:.:.:.:.:.p.y.p.p.<.[ [ ~ [ [ ! [ [ &.p.:.p.p.p.p.p.>.p.:.:.p.-.-.-.;.@.;.p.t.l.' Z.K.K.K.J.",
"H.H.H.K.G.T >.p.p.:.-.-.:.-.:.:.:.-.:.:.:.:.>.p.p.>.t.@.| | | [ [ [ | | @.a.p.p.p.p.p.p.p.p.t.:.:.:.:.-.&.&.:.p.p.l.P V.K.K.K.H.",
"H.H.H.K.G.` >.t.p.:.-.-.-.-.-.:.:.:.:.t.:.p.t.t.p.z.>.@.$.| | #.o.[ | $.@.*.s.p.p.p.p.p.p.t.p.t.:.:.-.:.-.&.-.p.t.l.2.V.K.K.H.H.",
"H.H.H.K.G.U >.p.p.:.:.-.:.:.:.t.:.:.:.:.p.t.p.z.-.u q *.$.#.| @.@.[ $.$.*.q u y.p.p.p.p.>.t.>.>.:.-.-.-.-.&.&.p.l.k.H Z.K.K.H.K.",
"H.H.H.H.K.N.m O.l.:.-.:.-.:.-.-.:.:.:.t.p.p.*.t ; @ # q *.$.$.$.$.$.$.-.q @ @ $ u -.p.p.t.p.t.:.:.:.:.-.&.&.:.l.r.m N G.H.K.K.G.",
"H.H.H.H.H.K.B.n J :.:.-.:.-.:.:.:.:.p.p.&.q $ # ; ; ; $ u *.*.$.$.$.&.~ ; ; ; ; # $ q $.p.p.t.:.:.:.-.-.&.*.*.x i N.H.H.H.H.H.H.",
"H.H.K.K.K.G.K.G.Z b ..>.:.:.:.p.k.:. .q % $ 3 4 5 5 5 5 5 ~ -.*.$.-.~ 4 5 5 5 4 4 3 % % q @.:.p.:.-.-.:.*...b s S.K.H.H.H.H.H.H.",
"H.H.S.K.K.H.H.H.K.V.s G -.<.:.-.{ 0 , 4 5 q 8 8 8 q t u t q @.*.&.~ q q q q 8 8 5 6 0 5 , , 5 [ &.:.:.&.l i B.K.G.K.H.H.H.H.H.H.",
"H.H.K.G.K.H.H.H.K.K.K.N.n P @.t 6 q t t t t t ~ t ~ ~ ~ ~ @.~ @.$.~ | | ~ ~ ~ ~ ] [ t t ! t r q t @.c v Z G.K.K.K.G.H.H.H.H.H.H.",
"H.H.H.H.H.H.H.S.H.H.H.J.S.c t.n.(.n.n.n.n.n.n.c.c.c.c.c.c.c.c.t.t.j.j.j.j.j./.j.n.n.n.n.(.(.).`.n.x.1.Z.J.K.K.K.J.K.J.K.K.K.K.K.",
"H.H.H.H.H.H.H.K.H.J.J.' $.;.-.-.c.].}.}.].{.].].].].]._.)._.n.p.p./._._.].].].}._.{.{.{.{.|.`.n.k.t.l.t.' G.J.K.J.K.K.S.K.G.K.G.",
"H.H.H.H.H.H.K.K.J.I.5.#.$.$.;.$.&.-.c.{. X}.}.}.}.{.].].{.n.p.t.y.p./.}.].].].}.|.[..X|.`.j.:.:.>.p.p.k.l.7.I.G.S.K.K.K.K.K.K.K.",
"H.H.H.H.H.H.J.H.' ;.@.$.$.&.$.;.-.:.-.-.c.]. XXX X X X X).p.s.p.p.s.p./.XX X X XXX.X_.s.-.:.t.k.p.:.k.:.p.>.p.q.K.G.K.J.G.J.K.S.",
"H.H.H.H.S.J.R.8.l.;. .@.$.;.&.&.-.-.:.:.>.:.z._. XXXXX_.p.s.v.s.t.v.s.p._.XXXX X(.t.;.;.-.:.p.t.p.t.k.>.t.p.>.,.u.P.G.K.K.K.H.H.",
"H.H.H.H.J.' p.y.p.;.@.@.$.&.&.;.:.:.:.:.t.p.>.:.p.)._.s.s.c.c.s.s.n.c.s.s._.n.%.@.;.;.-.:.:.t.p.p.k.p.p.p.k.k.t.>.,.' G.K.K.H.H.",
"H.H.H.H.G.9.l.t.p.;.@.$.$.&.&.-.:.-.:.:.p.p.p.p.t.>.p.c.c.n.n.j.j.n.n.v.n.-.@.@.-.-.-.y.-.p.p.p.p.p.p.>.p.>.p.p.p.l.2.V.K.H.H.H.",
"H.H.H.H.J.' l.p.p.-.@.$.$.&.-.-.-.:.-.:.p.p.p.p.p.p.p.c.n.n.).j.c.).n.n.v.$.$.$.-.-.-.-.-.:.-.p.p.p.p.p.t.k.p.p.p.l.2.V.K.H.H.H.",
"H.H.H.K.J.9.,.y.k.&.@.@.&.&.&.&.-.:.:.:.:.k.k.:.p.p.>.c././._.n.c._.n./.s.$.$.$.-.-.-.-.-.p.t.p.p.p.p.p.p.p.p.p.t.l.` F.K.H.H.H.",
"H.H.H.K.J.' l.y.y.;.@.&.@.&.&.;.&.:.:.:.:.t.t.>.p.p.p.p.).)._.n.n._._./.$.@.$.$.-.-.-.-.p.-.p.p.p.p.p.p.p.p.p.p.p.l.` F.K.H.H.H.",
"H.H.H.H.S.9.l.y.p.;. .&.@.&.&.&.-.:.:.:.:.p.k.p.p.p.p.>.n._._.n.n.].].j. .$.$.$.-.-.-.p.-.p.t.p.p.p.p.p.p.p.p.p.p.l.2.F.K.H.H.H.",
"H.H.H.H.J.9.l.y.p.;.@.$.&.&.&.;.:.-.-.:.:.p.p.p.p.p.p.p.s._.]./.n.].].-.@.$.$.&.-.-.-.-.t.-.p.p.p.p.p.p.p.a.a.p.p.l.2.F.K.H.H.H.",
"H.H.H.K.G.9.l.y.p.&.@.@.&.&.&.;.-.:.:.:.t.p.p.p.p.p.p.p.>.).}.n./.}.(. . .&.$.$.;.;.-.-.y.y.p.p.p.p.p.p.p.p.p.p.p.l.2.V.K.K.H.H.",
"H.H.H.K.F.' l.y.k.;.@.&.@.&.&.&.:.&.:.:.>.p.p.p.p.p.p.p.t.c.}.(./. X-. . .&.$.&.&.&.-.y.-.:.-.p.p.p.p.p.p.p.p.p.p.l.2.V.K.K.K.H.",
"H.H.S.H.J.9.l.y.p.-.@.@.&.&.&.;.&.:.:.:.>.p.p.k.p.>.p.p.p.p.{.)./.'.[ @. .$.&.&.&.&.-.-.:.-.p.p.p.p.p.>.p.p.p.p.p.a.2.F.K.H.H.H.",
"H.H.J.S.J.9.l.y.k.-.@.&.@.&.&.&.:.-.:.:.t.t.p.p.p.p.p.p.p.>.c._.(.j.[ @.&.@.@.&.;.&.-.-.-.p.p.p.p.p.p.p.p.p.p.p.p.a.` F.K.H.H.H.",
"H.H.H.K.G.' >.:.k.&.@.&.&.&.&.&.:.;.:.:.:.:.>.p.p.p.p.p.p.p.p.).n.@. .@.@.$.@.&.-.-.-.:.-.:.-.p.p.p.p.p.p.p.p.p.p.a.` F.K.K.K.K.",
"H.H.J.K.G.9.,.k.p.&. . .&.&.&.&.&.:.;.:.:.p.p.p.p.p.p.p.p.p.p.i.-.{  .@. .@.&.$.*.-.-.-.:.t.p.t.p.a.p.p.p.p.p.:.p.a.` F.K.K.H.K.",
"J.K.K.K.G.9.>.:.:.&. .&.&.&.-.-.-.:.:.:.:.k.p.p.p.k.p.p.k.p.,.S g @. .@.&.@.&.&.-.-.-.:.:.:.p.p.p.p.p.p.p.p.p.:.p.s.` F.K.H.H.H.",
"K.K.S.K.G.' l.:.:.&.@.&.&.&.&.-.&.:.:.:.:.p.:.p.>.p.t.>.t.l...A B...@. . .o.$.&.$.*.-.-.:.-.t.p.p.p.p.p.p.p.-.-.*.a.` F.K.H.H.H.",
"S.K.K.K.J.U >.:.-.$.o.o.@.&.-.-.:.:.:.t.p.k.p.k.k.k.k.k.k.p.F B.G.F { @.&.&.&.-.-.-.-.p.t.t.p.s.p.p.s.p.p.-.$.%.-.a.K F.K.K.H.H.",
"K.J.K.K.J.D :.&.%.o. .| [ | ] | ! ! W ! W r r e e w w 0 q z Z K.J.V.k 6 < 7 7 0 e e e W ! ! ! ~ [ [ [ @.$.$.$.*.-.t.I G.K.K.H.H.",
"K.S.K.S.K.Z.6.;.$.X.| | ] r r w 0 7 5 1 > > - - o o o X + v G.K.S.K.A +   o & & - - > > < 9 7 9 W e ! ! ! [ $.$.-.O.M.K.H.H.H.H.",
"K.J.K.J.K.Z.I <.o.[ | ] t r r w w 7 2 2 1 > > - & & o o f V.K.K.J.J.G.g o o & - - - > 5 ; 7 7 8 e e W ! ^ ~ X.X.:.H B.K.H.H.H.H.",
"H.H.H.H.H.K.N._ =.^ ! ! ! ! 0 0 0 7 1 > > > - - & o o * A J.S.J.K.K.K.B.: X o & & & ; < < < 9 9 0 W ! Q ! ! ~ =.( C K.G.K.G.K.K.",
"H.H.H.H.H.H.H.Z ( =.~ ! e 0 8 7 5 1 > > > > o o + X X h B.K.K.K.J.K.K.J.M X X + + # - - ; < ; 7 7 5 0 q q ~ =._ v A.K.H.K.K.G.K.",
"H.H.H.H.H.H.H.H.C G ( ^ ^ ^ ^ ^ W W W W w w w w 2 w j Z K.K.K.K.S.J.S.K.V.k 2 2 9 W W 0 W W Q Q Q ^ ~ ^ ^ ( l a G.K.K.H.K.K.K.K.",
"H.H.H.H.H.H.H.H.H.N.C n B v B N n n A n A n V V n A s S.K.K.S.J.K.K.K.K.S.A A A B B B B C B B B N B B B B C M.H.K.G.K.H.K.G.K.K.",
"H.H.H.H.H.H.H.H.H.H.H.S.H.H.F.H.S.G.Z.S.G.S.G.S.S.S.G.J.K.K.J.K.K.K.K.K.J.K.S.G.A.A.G.A.G.A.A.A.G.G.G.G.G.H.K.H.H.H.H.H.G.K.H.H.",
"H.H.H.H.H.H.H.H.H.H.H.H.J.H.H.H.K.K.J.K.K.S.J.K.J.K.K.S.S.J.K.K.J.S.J.K.J.S.S.J.K.K.K.K.K.H.K.K.H.H.K.K.K.H.K.H.H.H.H.H.K.K.H.H.",
"H.H.H.H.H.H.H.H.H.H.H.H.H.H.H.H.K.K.K.K.J.K.S.K.S.J.K.J.K.K.K.K.K.K.J.S.J.K.K.K.H.H.H.H.H.H.H.H.H.H.K.K.H.H.H.H.H.H.H.H.H.H.H.H.",
"H.H.H.H.H.H.H.H.H.H.H.H.H.H.H.H.S.J.K.S.J.K.J.K.K.K.K.K.K.S.J.S.J.K.K.K.S.K.K.J.H.H.H.H.H.H.H.H.H.H.H.H.H.H.H.H.H.H.H.H.H.H.H.H."
};
