/* XPM */
static const char *CoMed_xpm[] = {
/* columns rows colors chars-per-pixel */
"32 32 129 2 ",
"   c #A99051",
".  c #AA955F",
"X  c #B39752",
"o  c #B39854",
"O  c #B69D5E",
"+  c #BA9E5F",
"@  c #AB9660",
"#  c #A3956F",
"$  c #B09B63",
"%  c #A29775",
"&  c #BCA162",
"*  c #B6A069",
"=  c #BCA66F",
"-  c #C1A768",
";  c #C6AC6C",
":  c #C2AC75",
">  c #C9AF71",
",  c #CCB274",
"<  c #CAB47A",
"1  c #D0B778",
"2  c #D3BA7C",
"3  c #929594",
"4  c #A5A294",
"5  c #A9A699",
"6  c #ACAA9D",
"7  c #949BA0",
"8  c #8D9DB7",
"9  c #8FA0BC",
"0  c #93A1B5",
"q  c #9BA7B7",
"w  c #95A4BC",
"e  c #9DABBE",
"r  c #ACACA3",
"t  c #ADAFA9",
"y  c #B7B6A9",
"u  c #ACB5BD",
"i  c #B8BCB5",
"p  c #B9BEBD",
"a  c #C8B784",
"s  c #CFB981",
"d  c #D3BD83",
"f  c #D5BF89",
"g  c #C1BB9F",
"h  c #C4BEA4",
"j  c #BDC0BC",
"k  c #DAC183",
"l  c #DCC885",
"z  c #D6C28B",
"x  c #DDC68B",
"c  c #DFCA8D",
"v  c #D9C590",
"b  c #DFCA91",
"n  c #D4C69E",
"m  c #E2CC8E",
"M  c #EAD38C",
"N  c #E3CE92",
"B  c #E5D195",
"V  c #E9D395",
"C  c #E7D399",
"Z  c #EAD69C",
"A  c #EDD89F",
"S  c #F2D996",
"D  c #F4DC9E",
"F  c #F8DF9F",
"G  c #FBE19E",
"H  c #CBC4AB",
"J  c #D3C5A0",
"K  c #D4C8A1",
"L  c #DDD1AB",
"P  c #D8CEB0",
"I  c #DDD2B2",
"U  c #E7D6A2",
"Y  c #E8D6A2",
"T  c #EEDAA2",
"R  c #E5D7AF",
"E  c #EDDCAB",
"W  c #F2DCA2",
"Q  c #F2DEAB",
"!  c #E7D9B2",
"~  c #ECDEB9",
"^  c #F6E0A6",
"/  c #FCE2A2",
"(  c #F5E1AB",
")  c #F3E1B3",
"_  c #F5E5BC",
"`  c #F8E6BD",
"'  c #FFEBBC",
"]  c #8A9FC4",
"[  c #8CA2C7",
"{  c #94A6C2",
"}  c #99ABC6",
"|  c #90A7CD",
" . c #93A9CD",
".. c #9AAECE",
"X. c #9EB1CF",
"o. c #90A7D1",
"O. c #94ACD5",
"+. c #99AFD4",
"@. c #95AED8",
"#. c #98AFD8",
"$. c #9BB0D4",
"%. c #98B0D9",
"&. c #A0AFC1",
"*. c #A2B1C7",
"=. c #A9B4C0",
"-. c #AEB8C3",
";. c #A2B3CD",
":. c #B0BAC2",
">. c #BCC2C3",
",. c #B7C3D4",
"<. c #B8C3D3",
"1. c #C2C6C6",
"2. c #C4C8C7",
"3. c #C2C7C8",
"4. c #C4C8C9",
"5. c #DEDDD2",
"6. c #E0DED2",
"7. c #F6E6C0",
"8. c #F7E8C4",
"9. c #FAEAC4",
"0. c #F5EACA",
"q. c #FAEDCB",
"w. c #FFF1CD",
"e. c #FBEED2",
"r. c #FFF4D3",
"t. c #FDF2DB",
"y. c #FFFCDD",
"u. c #FEF6E2",
"i. c #FFFAE2",
/* pixels */
"+.+.+.+.+.#.+.+.#...#.$.$.+.+.+.+.+.+.+.$.$.$.+.$.$.+.+.#.+.+.+.",
"+.+.+.+.#.#.o.#.#.#.#.[ #.#.+.+.#.+.#.#.o.#.#.o.@.o.#.$.+.+.+.+.",
"+.+.+.#.X.>.>.1.1.1.3.4.1.*.@.+...#...1.4.1.1.1.4.2.>.$.#.+.+.+.",
"+.+.#.*.! 9.9.q.r.r.t.t.y.5.#.+.#...5.y.t.r.r.r.r.q.9.) *.#.+.+.",
"+.$.#.P ' 8.q.q.e.t.t.t.u.u.-.@.#.:.i.u.t.t.t.e.r.q.8.' I #.#...",
"+.+.} E ` E E E E E E E ! _ ~ @.+.L E E E E Y E U B E _ Q *.#.+.",
"$.#.u ^ ( N m m N B B V V Z S h i M B B N N N N c l k E W u #...",
"#.#.u D E N B B B Z Z Z Z Z T N x Z Z Z Z Z Z B B b x T W u #.#.",
"..#.u A E N V B A B A A Z A T 2 , Z A A A A Z Z B B c A ^ u o.+.",
"#.#.u D A B B V B A Z Z A W V , , N W A A A A A A B b Z G u @.$.",
"+.@.u D A B B Z Z A A A A W m 2 1 x W W E D A A A Z B A D u #.+.",
"$.+.=.A E B Z B Z B A A A A 2 d d k V E D A W A Z B B A E u #.+.",
"+.@.=./ E B Z Z A A A ^ ^ V m x x x Z W W W E A A A B Y G u #.$.",
"+.+.} J G Z Z V Z E W B , , V m c B , > B ^ W A A B B G n w +.$.",
"+.+.#.[ r B D E A m , + + & k Z V d - + + , m A A A b r 8 #.+.+.",
"+.+.+.$.o.9 h B 1 ; > 1 1 1 1 B N 2 1 1 1 , ; 1 M y 8 o.@.$.#.+.",
"+.+.$.$.@.$.h E ) q.q.8.) ` 8.Q W 8.` 7.9.q.q.) Q H ..+.+.+.+.+.",
"+.+.+.@.j b M B T ) e.u.u.u.` W W 8.u.u.y.q.) E W / W p #.#.+.+.",
"+.+.;.I D c B B B Z A Q e.q.W Q Q Q q.0.E N V A W W W F L ..#.+.",
"+.@.=.G A m B B Z T W W T Q ` ` ) ) E m B Z A E W W W E F u #.+.",
"+.#.=.W A N B B Z Z W W W W 8.8.8.9.B B B Z A D W W W W F u #.+.",
"+.#.=.^ Z m N B B T E W W W 8.8.e.) c B B B V E T W W W F u #...",
"$.@.:./ A N B B Z Z A D W T ) q.e.U c B B B E W W W W T D u #.+.",
"$.+.=.^ Z N N B Z Z W W W W W 9.7.c m N Z Z Z A W W W T F u O.+.",
"$.#.:./ Z N B B Z Z T W W W W Q C m N N V V Z T T W W T W p O.$.",
"#.#.=.D B N B B Z T W Q W W W y 6 M N V Y Z T T W W T Y W u O.$.",
"#.#.} Z N b b b x m m m m m f  . .a d d f x m m V V C m Z &.O.$.",
"..#...n m z s < : : $ . @   3 @.@.7   $ $ $ = > < s f m f  .$.O.",
"+.+.#.w v k 1 , ; - $ + X #  .+.+.+.% X + $ - ; 1 2 k f &.O.$.$.",
"+.+.+.#.{ r 6 6 6 4 5 5 4 0 @.+.+.@.w 4 4 4 5 6 6 6 r w O.@.+.$.",
"+.+...+.#.#.#.#.O.O.O.O.O.+.+.+.+.+.+.#.O.O.O.O.O.O.O.O.$.O.+.+.",
"+.+.#...#.+.+...+.+.+.+.+.+.+.+.+.+.+.+.$.$.O.$.$...$.$.$.+.+.+."
};
