/* XPM */
static char *compendium_xpm[] = {
/* columns rows colors chars-per-pixel */
"64 64 2 1 ",
"  c None",
". c black",
/* pixels */
"                                     ....                       ",
"                               ..........                       ",
"                        .................                       ",
"                 .........................                      ",
"          ................................                      ",
"   .......................................                      ",
" .........................................                      ",
"  .........................................                     ",
"  .........................................                     ",
"  .........................................                     ",
"  .........................................                     ",
"   ..................................... ..                     ",
"   ...............................        ..                    ",
"   ........................               ..                    ",
"   ..................                     ..                    ",
"   ............                           ..                    ",
"    ....                                   ..                   ",
"    ..                                     ..                   ",
"    ..                               ..    ..                   ",
"    ..                         ........    ..                   ",
"    ...                  ..............     ..                  ",
"     ..           ......................    ..                  ",
"     ..     ............................    ..                  ",
"     ..     ......................          ..                  ",
"     ...    ................                                    ",
"      ..    ...........                                         ",
"      ..    .....                             ..                ",
"      ..                               ................         ",
"      ..                            .....            ......     ",
"      ...                         ...                    ...    ",
"       ..                       ...                        ...  ",
"       ..                       ..                          ..  ",
"       ..               .....  ..                            .. ",
"       ..         ...........  ...                           .. ",
"        ..    ...............  ....                         ... ",
"        ..    ...............  .....                      ..... ",
"        ..     .............   .........              ......... ",
"        ..     .......         ................................ ",
"        ...    ..              ................................ ",
"         ..                     ............................... ",
"         ..                     ..............................  ",
"         ..                      ............................   ",
"         ..                        .........................    ",
"          ..                        ......................      ",
"          ..            .....  ..       ..............       .. ",
"          ..       ..........  ...                          ... ",
"          ..     ............  .....                      ..... ",
"          ...    ............  .........              ......... ",
"           ..    ...........   ................................ ",
"           ..    ......         ..............................  ",
"           ..                   ..............................  ",
"           ..                     ..........................    ",
"           ...                      .......................     ",
"            ..                 .       ................       . ",
"            ..                 ...            ..             .. ",
"            ..                 ....                        .... ",
"            ...         .....  .......                  ....... ",
"             ..    ..........  .............      ............. ",
"             .............      ............................... ",
"             ........           ..............................  ",
"             ...                 ............................   ",
"                                   ........................     ",
"                                     ....................       ",
"                                         ............           "
};
