/* XPM */
static const char *compendium_xpm[] = {
/* columns rows colors chars-per-pixel */
"32 32 2 1 ",
"  c None",
". c black",
/* pixels */
"                 ....           ",
"          ...........           ",
"   ..................           ",
" ....................           ",
" ....................           ",
" .....................          ",
" ..............      .          ",
"  .......            .          ",
"  .                  .          ",
"  .              ..   .         ",
"  .        .........  .         ",
"  ..  .............   .         ",
"   .  .......                   ",
"   .                 .....      ",
"   .             ..         ..  ",
"   .            .             . ",
"    .      ...  .             . ",
"    .  .......  ..           .. ",
"    .  ......   .....     ..... ",
"    .           ............... ",
"    ..          ............... ",
"     .            ...........   ",
"     .     ...  .     ...     . ",
"     .  ......  ...         ... ",
"     .   ....   ............... ",
"      .          .............  ",
"      .            ..........   ",
"      .         .             . ",
"      .    ...  ....       .... ",
"      ......    ............... ",
"                 .............  ",
"                   .........    "
};
