/* XPM */
static char *desitin_xpm[] = {
/* columns rows colors chars-per-pixel */
"64 64 155 2 ",
"   c None",
".  c #CFA65F",
"X  c #D7A054",
"o  c #D3A75E",
"O  c #D5A95C",
"+  c #E1A95C",
"@  c #CCA360",
"#  c #CFAD68",
"$  c #D1A764",
"%  c #D5AC64",
"&  c #DAAD63",
"*  c #D4AD6B",
"=  c #DAAE6B",
"-  c #D7B067",
";  c #DCB165",
":  c #D6B36E",
">  c #DBB26C",
",  c #DFB96D",
"<  c #D4AE73",
"1  c #DAAE70",
"2  c #D5B274",
"3  c #DCB473",
"4  c #DBB877",
"5  c #D6B47A",
"6  c #DBB57B",
"7  c #D6B97B",
"8  c #DCBA7D",
"9  c #E0AE66",
"0  c #E1B465",
"q  c #EEB766",
"w  c #EAB866",
"e  c #E2B56B",
"r  c #E3B96E",
"t  c #EABB6D",
"y  c #E1B673",
"u  c #E4BA74",
"i  c #E9BD73",
"p  c #E1B77D",
"a  c #E2BA7C",
"s  c #E9BE7C",
"d  c #F0BD71",
"f  c #EDC275",
"g  c #E6C27E",
"h  c #ECC47B",
"j  c #F2C576",
"k  c #F1C57C",
"l  c #F4CA7F",
"z  c #F8CD7D",
"x  c #D6B481",
"c  c #DCB781",
"v  c #D7BA80",
"b  c #DDBB83",
"n  c #DDBD8A",
"m  c #E3BD83",
"M  c #E9BE81",
"N  c #E2BD8A",
"B  c #DFC185",
"V  c #DFC088",
"C  c #DDC393",
"Z  c #DEC896",
"A  c #DDC598",
"S  c #E3C284",
"D  c #EAC384",
"F  c #E5C885",
"G  c #EEC885",
"H  c #E4C48A",
"J  c #EAC68B",
"K  c #E6C88E",
"L  c #ECCA8D",
"P  c #F2C681",
"I  c #F3CC84",
"U  c #F9CD86",
"Y  c #F0C78F",
"T  c #F3CD8C",
"R  c #F9CF8E",
"E  c #EFD28F",
"W  c #F9D186",
"Q  c #F5D28D",
"!  c #F9D38C",
"~  c #F6D88F",
"^  c #FBD88F",
"/  c #E4C593",
"(  c #E9C790",
")  c #E6CB92",
"_  c #EBCC93",
"`  c #E1C79A",
"'  c #E4C99B",
"]  c #EBCE9B",
"[  c #F3CE92",
"{  c #F8CF92",
"}  c #EED096",
"|  c #EDD29B",
" . c #F5D394",
".. c #F9D594",
"X. c #F5D896",
"o. c #FAD995",
"O. c #F4D59B",
"+. c #F9D69A",
"@. c #F6D99C",
"#. c #FADB9C",
"$. c #FBE09E",
"%. c #E0C6A0",
"&. c #E3CDA4",
"*. c #EACFA1",
"=. c #E4CEAA",
"-. c #E6D1A6",
";. c #ECD3A5",
":. c #E4D1AC",
">. c #EBD4AB",
",. c #EDD8AD",
"<. c #F5D6A1",
"1. c #FAD7A3",
"2. c #F6DAA3",
"3. c #FADDA3",
"4. c #F3D6AB",
"5. c #F3DBAB",
"6. c #FADEAA",
"7. c #EBD5B3",
"8. c #ECDAB3",
"9. c #E7D8B8",
"0. c #EEDCBD",
"q. c #F2DAB3",
"w. c #FBDFB2",
"e. c #F1DEBE",
"r. c #FCE1A4",
"t. c #FCE2AB",
"y. c #F5E0B5",
"u. c #FCE3B3",
"i. c #F3E1BD",
"p. c #F9E4BB",
"a. c #FCE8BC",
"s. c #EEDEC2",
"d. c #F1DEC1",
"f. c #EDE0C8",
"g. c #F3E2C4",
"h. c #F5E9C7",
"j. c #F9E8C0",
"k. c #F4E4CB",
"l. c #F5E9CB",
"z. c #FAECCC",
"x. c #F2E7D0",
"c. c #F5EAD3",
"v. c #F9EBD1",
"b. c #F4EBDA",
"n. c #FCEEDC",
"m. c #FBF0D6",
"M. c #FBF2DD",
"N. c #F6EFE1",
"B. c #FAF4E3",
"V. c #FDF9E6",
"C. c #FBF6EB",
"Z. c #FDFAEC",
"A. c #FBF7F0",
"S. c #FDFAF4",
"D. c #FEFEFE",
/* pixels */
"                D.D.D.D.D.D.D.D.D.D.D.D.D.D.D.D.D.D.D.D.D.D.D.D.D.D.D.D.D.D.D.D.D.D.D.D.D.D.D.D.D.D.D.D.D.D.D.D.                ",
"            D.D.D.D.D.D.D.D.D.D.D.D.D.D.D.D.D.D.D.D.D.D.D.D.D.D.D.D.D.D.D.D.D.D.D.D.D.D.D.D.D.D.D.D.D.D.D.D.D.D.D.D.            ",
"        D.D.D.D.D.D.D.D.D.D.D.D.D.D.D.D.D.D.D.D.D.D.D.D.D.D.D.D.D.D.D.D.D.D.D.D.D.D.D.D.D.D.D.D.D.D.D.D.D.D.D.D.D.D.D.D.        ",
"      D.D.D.D.D.D.D.D.D.D.D.D.D.D.D.D.D.D.D.D.D.D.D.D.D.D.D.D.D.D.D.D.D.D.D.D.D.D.D.D.D.D.D.D.D.D.D.D.D.D.D.D.D.D.D.D.D.D.      ",
"    D.D.D.D.D.D.D.D.D.D.D.D.D.D.D.D.D.D.D.D.D.D.D.D.D.D.D.D.D.D.D.D.D.D.D.D.D.D.D.D.D.D.D.D.D.D.D.D.D.D.D.D.D.D.D.D.D.D.D.D.    ",
"    D.D.D.D.D.D.D.D.D.D.D.D.D.D.D.D.D.D.D.D.D.D.D.D.D.D.D.D.D.D.D.D.D.D.D.D.D.D.D.D.D.D.D.D.D.D.D.D.D.D.D.D.D.D.D.D.D.D.D.D.    ",
"  D.D.D.D.D.D.D.D.D.D.D.D.D.D.D.D.D.D.D.D.D.D.D.D.D.D.D.D.D.D.D.D.D.D.D.A.D.D.S.D.D.D.D.D.A.A.A.A.A.D.D.D.D.D.D.D.D.D.D.D.D.D.  ",
"  D.D.D.D.D.D.D.D.A.b.9.&.&.=.&.=.&.A A &.:.:.=.:.9.x.C.D.D.D.D.D.D.D.f.&.&.&.%.%.:.%.Z C x n n A A A 9.b.A.D.D.D.D.D.D.D.D.D.  ",
"D.D.D.D.D.D.D.D.c.Z v < * < 5 < < . # 5 5 x 5 2 5 8 ,.m.Z.D.D.D.D.D.b.< * * 3 2 5 v v 2 # < 6 3 : : * 5 n e.Z.A.D.D.D.D.D.D.D.D.",
"D.D.D.D.D.D.D.c.H b 6 * < 2 x 5 2 2 2 x x 5 b 5 5 2 / h.m.A.D.D.D.A.n X = b 6 8 8 8 7 8 2 7 b 6 3 p 2 : < b y.n.A.D.D.D.D.D.D.D.",
"D.D.D.D.D.D.B.D H / m y 3 8 n v v b b b 5 2 m C n 8 p ,.z.n.A.D.D.9.y e b ) H / K H H D i g m J D D 3 * * $ J j.c.A.D.D.D.D.D.D.",
"D.D.D.D.D.D.8.D H / _ ( _ _ ) ) } ' ] J H _ } <.} _ g ] k.x.M.D.B.<.T  .} } { {  .T K }  .T I @.O.) _ 3 * * 3 O.i.N.D.D.D.D.D.D.",
"D.D.D.D.D.A.;._ _ ] 2.O.@.1.2.2.2.2.@.O.O.<.6.6.6.O.] O.6.s.x.b.a.3.3.3.t.3...{ @. ..... ...! ! @.2.O.m 8 c a K 7.f.D.D.D.D.D.D.",
"D.D.D.D.D.C.} ) ] 2.3. .@.6.2.6.6.6.2.2.2.6.<.3.2.O.@.3.<.d.s.w.@.t.t.t.u.w.6.@.@.@.@.@.@.@.o...@.$.} D m c 3 g *.s.D.D.D.D.D.D.",
"D.D.D.D.D.M.D J _ 3.3.O.@.2.2.<.6.2.2.3.2.6.3.6.2.O.O.@.3.4.q.6.3.t.u.u.6.1.6.3...@.6.3.@.$.o.@.$.r. .D i b y m 4.s.A.D.D.D.D.D.",
"D.D.D.D.D.M.D K } 2.2.2.} 2.<.2.6.6.2.2.@.t.6.6.3.3.3.3.@.p i ! @.$.t.t.@...@.@.@.3.6.3.@.@.@.@.$.2. .D a 6 p J ,.g.D.D.D.D.D.D.",
"D.D.D.D.D.C.' ) } 2.2.<.] <.2.2.t.w.6.2.2.r.6.2.1.@.3.1.{ = e R $.$.3.3.@.....@.@.@.3.r.@.3.t.$.r.$.@.K B 6 6 m ,.d.A.D.D.D.D.D.",
"D.D.D.D.D.C.' / ] 2.<.<.<.<.3.2.t.y.t.3.2.r.6.3.@.3.....D 1 D { $.3.3.3.@...@.r.3.3.r.r.3.t.r.@.@.@.@.F H b a a ,.d.D.D.D.D.D.D.",
"D.D.D.D.D.C.-.H ( 6.6.6.O.O.<.@.3.6.6.6.6.O.<.6.@. .o.O.3 1 M @.@.r.t.3.@.@.@.@.3.3.r.r.t.3.o.$.r.$.@.K n b = y ;.g.D.D.D.D.D.D.",
"D.D.D.D.D.C.*.) / ,.6.2.2.O.O.O._ 3.2.3.t.1.3.2.3.@.r.K 3 > M ..@.t.6.6.r.@.@.3.3.r.r.3.@...o.@.@.@.@. .H c 6 m 4.s.A.D.D.D.D.D.",
"D.D.D.D.D.N.H H _ 6.w.2.2.6.6.2. .1.@.6.6.6.<.6.3.@.@.a = = M @.@.r.u.3.3.r.3.r.r.t.t.3.^ ^ o.@.@.o.@.} H 6 6 a 6.g.D.D.D.D.D.D.",
"D.D.D.D.D.C.H D ] w.w.2.6.6.6.2.O.@.3.6.1.6.O.3.@.@.T i 3 1 M { ..@.t.@.r.r.@.t.r.r.t.@.^ ^ @.r.@.o.@._ b 5 < 3 ;.g.A.D.D.D.D.D.",
"D.D.D.D.D.C.( m ) 6.6. . .2.6.<.{ O.O.3.1.1.@.@.@. .f > = = s { ....r.3.3...o.3.3.@.@.@.@.o.3.3.3.$.3.] m c 6 3 ;.h.A.D.D.D.D.D.",
"D.D.D.D.D.C._ D J 2.6.@.K @.2.2.<.O. .....w.1...2.Q i & 0 O s @.@.R o.3.6.3.@.@.@.@.@.@.3.3.t.t.r.r.3.( c c b 8 ,.f.D.D.D.D.D.D.",
"D.D.D.D.D.C.) H K @.3.@.{ <.<.<.3.O... .Q 3.@.T Q G > ; 9 & i @.@.! ..r.3.3.@.@.@...o.r.t.t.6.t.t.r.O.D 3 6 b a 6.f.D.D.D.D.D.D.",
"D.D.D.D.D.C.) J ] O.@.@.{ O. . .O.@.@.O.@.Q @.....D 3 & O & a ..o.! ! 3.3.6.@...! @.3.@.r.3.t.t.t.3.@.m 6 6 8 3 w.g.A.D.D.D.D.D.",
"D.D.D.D.D.Z.) H *.1.@.{ @.1.@.O.O.3.@. . ...3.3. .D y > e = y { o.o...$.@.o.@.@.@.3.t.r.3.r.t.t.2.6.6./ m p 3 3 7.s.A.D.D.D.D.D.",
"D.D.D.D.D.A.;.H ] 3.@.@.3.<.1.@.2.6.6.t.@...T D _ s 3 3 p 9 p @.@.! o.! ! W o.3.$.6.t.$.r.r.r.3.O.t.2._ 6 1 6 ' g.C.D.D.D.D.D.D.",
"D.D.D.D.D.D.C.9.] 3.o.!  .3.@. .3.O.<.4.T D i 3 a i s a > 9 = Y @...Q I k j k T ..t.t.r.r.r.r.t.t.t.3._ 3 N g.A.D.D.D.D.D.D.D.D.",
"D.D.D.D.D.D.D.D.c.w.@.o.{ @.o.X.2.T i a y > r e e s D f y e 9 T r.@.T l i q t k P ! @.@.r.r.r.$.r.r.1.*.f.C.D.D.D.D.D.D.D.D.D.D.",
"D.D.D.D.D.D.D.D.D.A.z.$.@...o.Q a r ; e i y e f k P Y T P t + T r.@.! W z j j I R k I T X.r.r.r.3.3.i.B.D.D.D.D.D.D.D.D.D.D.D.D.",
"D.D.D.D.D.D.D.D.D.D.D.B.a.! f r r r r i D i e j k P I k k d q k @.@.! ! o.o...@.@.....o.T Q O.2.{ H g.D.D.D.D.D.D.D.D.D.D.D.D.D.",
"D.D.D.D.D.D.D.D.D.D.D.D.A.;.r 0 > , i f D s i s a D D f I l j j o.o.! o.$.o.$.r.@.3.3.@...{ Q X.D 5 e.D.D.D.D.D.D.D.D.D.D.D.D.D.",
"D.D.D.D.D.D.D.D.D.D.D.C.v.} i 3 > > , i i i s s i s m i r h h G ^ z I ! o.U U k k T { R K { @.r.@.H e.D.D.D.D.D.D.D.D.D.D.D.D.D.",
"D.D.D.D.D.D.D.D.D.D.M.a.t.t.@.O.D 3 > > > i M a r e 0 f t t r G $.W l f T P P P d P Y U  .@.t.t.t.3.} c.A.D.D.D.D.D.D.D.D.D.D.D.",
"D.D.D.D.D.D.D.D.C.g.6.$.t.t.@.3.@.f e = 3 6 y > y 0 ; i i i ; K $.o.Q f D M M D Y Y U @.r.t.r.t.u.3...K 7.n.D.D.D.D.D.D.D.D.D.D.",
"D.D.D.D.D.D.D.x.;.<.3.3.3.r.$.r.t. .I { Y s e = > y y = > r ; T $.o. .Y M y D  .{ @.R ..6.t.t.t.t.@.1.{ m n ,.x.C.D.D.D.D.D.D.D.",
"D.D.D.D.D.D.9.N D O.t.r.3.t.@.r.u.3.6.6.@.T T J s e > 3 ; o 0 T r...Q @. .3.3...! @.....3.6.3.6.3.....J m p 1 M w.x.A.D.D.D.D.D.",
"D.D.D.D.D.S.' D J @.t.t.t.t.3.R ..6.w.3.@.@...@.O.D 3 3 ; o O K @.o...@.3.t.@.z o.t.3.t.3.t.u.3.@.@.{ J H n 6 m ,.0.C.D.D.D.D.D.",
"D.D.D.D.D.S.*.J K @.@.t.6.6.3...{ 3.6.2.t.3.@.@.3.D > * & O O Q r.o.@.3.3.@...! o.r.@.@.3.3.3.3.@.@.3._ H m N 6 *.d.S.D.D.D.D.D.",
"D.D.D.D.D.A.;.H K X.r.r.r.3.@.@.1.@.$.3.t.6.r.@.3.K > > * & O Q $.! @.3.3.@...! W W ! @...@.1.@.@.@.6.} H 8 N b 4.d.C.D.D.D.D.D.",
"D.D.D.D.D.A.;.J _ 3.6.3.3.6.3.3.@.3.r.6.w.t.t.t.6.3.s > 3 = & W o.! o.......R U ! ..! o.3.@.@.3.3.3.6.} H b 8 b ,.d.S.D.D.D.D.D.",
"D.D.D.D.D.A.-.H H 2.6.6.@.Q @.2.3.3.r.6.t.t.t.u.6.r.G > * & ; ..@...@.r.6.....! @.@...@.6.@.@.3.3.6.2.] B B 8 8 ;.d.S.D.D.D.D.D.",
"D.D.D.D.D.A.;.J K O.2.O.@.@.2.@.O.@.r.r.3.@.@.2.@.@. .3 o o ; @.@.@.r.t.r.t.t.@.@.o.@.3.@.3.3.@.3.t.2.) D B 8 B *.d.S.D.D.D.D.D.",
"D.D.D.D.D.D.;.D J @.3. .@.@.3.@.$.@.@.r.3.T @.3.t.t.3.g & o 3 @...O.r.3.@.t.u.r.@.@.@.3.@.3...@.3.r.@.{ D B B B ,.d.A.D.D.D.D.D.",
"D.D.D.D.D.A.;.K K @.3.3.@.3.@.@.$.3.@.3.@.T @.3.2.2.3. .3 # 3 Q  .r.3.@...@.r.t.r.@.@.....3.r.@...@.O._ B H 7 v &.g.A.D.D.D.D.D.",
"D.D.D.D.D.D.;.F  .X.o.3.3.6.@...o.r.@...o.@.3.3.r.r.r.2.D $ > I @.3.3.o...@.r.t.@.@.@.@...@.3.r.@.3.3.] V b c m ] d.C.D.D.D.D.D.",
"D.D.D.D.D.A.,.B K @.@.@.3.@...! @.t.r.^ ^ @.@.3.r.r.r.r.T : >  .3.3.r.3.3.$.@.r.@.@.3.@.@.@.@.o.@.3.3._ D b 6 6 ' e.S.D.D.D.D.D.",
"D.D.D.D.D.D.7.H H O.3.@.r.o.! ..@.t.t.o.@.o.$.@.r.t.t.t.r.D 3 Q @...@.r.r.t.r.r.@.3.@.! @.t.r.@.$.$.@.T D 6 6 p ' e.A.D.D.D.D.D.",
"D.D.D.D.D.D.7.H H O.3.t.r.o.! ..3.r.3.3.t.@.@.r.t.t.t.r.u.} _  .W ! @.r.r.t.r.@.@.r.3.@.@.r.t.r.@.@.@.T D p 3 m *.e.C.D.D.D.D.D.",
"D.D.D.D.D.A.,.Z _  .@.@.@.o.r.3.r.r.r.t.t.t.r.r.@.@.r.r.@.} h.2.U ..@.@.@.r.3.3.r.$.r.r.r.$.r.$.$.t.@.f m p p p ] 9.S.D.D.D.D.D.",
"D.D.D.D.D.D.:.g _  ...Q o.@...O.2.2.$.r.r.r.3.3.@.$.$.$.X.,.z.z.r.o.3.t.r.r.3.@.@.! 3.r.t.$.$.r.r.t.2.D M p 3 p ' d.S.D.D.D.D.D.",
"D.D.D.D.D.D.0.D _ K  .O.@.@.Q Q $.r.@.$.r.6.r.r.r.3.@.@.2.m.M.A.m.@.1...O.@.3.3.@.@.@.r.t.t.r.r.r.r.@.K D 8 p 6 ] v.D.D.D.D.D.D.",
"D.D.D.D.D.D.b.V D b _ O. . .E K } } E @.<.O.O.} } O.{ K a.V.Z.D.A.t.{ T { O.O.1... . .@.O.O.@.@. .} K D i a 3 b g.C.D.D.D.D.D.D.",
"D.D.D.D.D.D.A.:.b n H H B b D B 8 g V V B B B B ) ) m } M.Z.D.D.D.B.) H ) H B g 3 3 D B m m D K B b g 8 : 3 > ,.Z.D.D.D.D.D.D.D.",
"D.D.D.D.D.D.D.C.' 3 : 8 5 5 8 7 7 7 7 8 2 6 6 6 b 8 m g.Z.A.D.D.D.D.l.7 2 8 8 B g 8 8 8 b 7 B V D b b 8 : 3 ,.Z.D.D.D.D.D.D.D.D.",
"D.D.D.D.D.D.D.D.C.:.$ , 2 : 2 2 7 5 # < 3 2 6 5 3 ; K M.A.D.D.D.D.D.D.-.* 6 m 8 5 D 6 6 5 8 v V m ; i m _ g.A.D.D.D.D.D.D.D.D.D.",
"  D.D.D.D.D.D.D.D.A.M.g.8.,.:.:.8.8.:.,.,.:.=.,.8.;.h.A.D.D.D.D.D.D.D.A.,.8.8.8.8.8.8.7.8.8.,.,.;.;.i.h.C.D.D.D.D.D.D.D.D.D.D.  ",
"  D.D.D.D.D.D.D.D.D.D.D.D.D.D.D.D.D.D.D.D.D.D.D.D.D.D.D.D.D.D.D.D.D.D.D.D.D.D.D.D.D.D.D.D.D.D.D.D.D.D.D.D.D.D.D.D.D.D.D.D.D.D.  ",
"    D.D.D.D.D.D.D.D.D.D.D.D.D.D.D.D.D.D.D.D.D.D.D.D.D.D.D.D.D.D.D.D.D.D.D.D.D.D.D.D.D.D.D.D.D.D.D.D.D.D.D.D.D.D.D.D.D.D.D.D.    ",
"      D.D.D.D.D.D.D.D.D.D.D.D.D.D.D.D.D.D.D.D.D.D.D.D.D.D.D.D.D.D.D.D.D.D.D.D.D.D.D.D.D.D.D.D.D.D.D.D.D.D.D.D.D.D.D.D.D.D.      ",
"        D.D.D.D.D.D.D.D.D.D.D.D.D.D.D.D.D.D.D.D.D.D.D.D.D.D.D.D.D.D.D.D.D.D.D.D.D.D.D.D.D.D.D.D.D.D.D.D.D.D.D.D.D.D.D.D.        ",
"          D.D.D.D.D.D.D.D.D.D.D.D.D.D.D.D.D.D.D.D.D.D.D.D.D.D.D.D.D.D.D.D.D.D.D.D.D.D.D.D.D.D.D.D.D.D.D.D.D.D.D.D.D.D.          ",
"              D.D.D.D.D.D.D.D.D.D.D.D.D.D.D.D.D.D.D.D.D.D.D.D.D.D.D.D.D.D.D.D.D.D.D.D.D.D.D.D.D.D.D.D.D.D.D.D.D.D.              "
};
