/* XPM */
static const char *export_xpm[] = {
/* columns rows colors chars-per-pixel */
"64 64 2 1 ",
"  c None",
". c black",
/* pixels */
"                                                                ",
"                               ..                               ",
"                              ....                              ",
"                             ......                             ",
"                            ........                            ",
"                           ..........                           ",
"                          ...  .. ....                          ",
"                         ...   ..  ....                         ",
"                        ...    ..   ....                        ",
"                       ...     ..    ....                       ",
"                      ...      ..     ....                      ",
"                      ..       ..      ...                      ",
"                               ..                               ",
"                               ..                               ",
"                               ..                               ",
"                               ..                               ",
"                       .....   ..  .............                ",
"                      .......  .. ...............               ",
"                     ........  ..  ..............               ",
"                    .....      ..             ...               ",
"                   ......      ..              ..               ",
"                  .... ..      ..              ..               ",
"                 ....  ..      ..              ..               ",
"                ....   ..      ..              ..               ",
"               ..........      ..              ..               ",
"               ..........      ..              ..               ",
"               .........       ..              ..               ",
"               ..              ..              ..               ",
"               ..              ..              ..               ",
"               ..              ..              ..               ",
"               ..              ..              ..               ",
"               ..              ..              ..               ",
"               ..              ..              ..               ",
"               ..              ..              ..               ",
"               ..              ..              ..               ",
"               ..              ..              ..               ",
"               ..              ..              ..               ",
"               ..              ..              ..               ",
"               ..              ..              ..               ",
"               ..                              ..               ",
"               ..                              ..               ",
"               ..                              ..               ",
"               ..                              ..               ",
"               ..                              ..               ",
"               ..                              ..               ",
"               ..                              ..               ",
"               ..                              ..               ",
"               ..                              ..               ",
"               ..                              ..               ",
"               ..                              ..               ",
"               ..                              ..               ",
"               ..                              ..               ",
"               ..                              ..               ",
"               ..                              ..               ",
"               ..                              ..               ",
"               ..                              ..               ",
"               ..                              ..               ",
"               ..                              ..               ",
"               ..                              ..               ",
"               ..                              ..               ",
"               ..                              ..               ",
"               ..................................               ",
"               ..................................               ",
"               .................................                "
};
