/* XPM */
static const char *export_xpm[] = {
/* columns rows colors chars-per-pixel */
"32 32 2 1 ",
"  c None",
". c black",
/* pixels */
"                                ",
"               ..               ",
"              ....              ",
"             . ....             ",
"            .  .. ..            ",
"           .   ..  ..           ",
"               ..               ",
"               ..               ",
"           ... .. ......        ",
"          .... .. .......       ",
"         ....  ..      ..       ",
"        .. ..  ..      ..       ",
"       ......  ..      ..       ",
"       ....    ..      ..       ",
"       ..      ..      ..       ",
"       ..      ..      ..       ",
"       ..      ..      ..       ",
"       ..      ..      ..       ",
"       ..      ..      ..       ",
"       ..              ..       ",
"       ..              ..       ",
"       ..              ..       ",
"       ..              ..       ",
"       ..              ..       ",
"       ..              ..       ",
"       ..              ..       ",
"       ..              ..       ",
"       ..              ..       ",
"       ..              ..       ",
"       ..              ..       ",
"       ..              ..       ",
"        ................        "
};
