/* XPM */
static char *favorites[] = {
/* columns rows colors chars-per-pixel */
"64 64 2 1 ",
"  c None",
". c black",
/* pixels */
"            .............................                       ",
"           ...............................                      ",
"          ....                        ....                      ",
"          ..                          .....                     ",
"          ..                          .. ...                    ",
"         ...                          ..  ...                   ",
"         ...                          ..   ...                  ",
"         ...                          ..    ...                 ",
"         ...                          ..     ...                ",
"         ...                          ..     ...                ",
"         ...                          ..      ...               ",
"         ...                          ..       ...              ",
"         ...                          ..        ...             ",
"         ...                          ..         ...            ",
"         ...                          ..          ...           ",
"         ...                          ...          ...          ",
"         ...                           ....        ...          ",
"         ...                           ................         ",
"         ...                             ..............         ",
"         ...                                        ...         ",
"         ...                                        ...         ",
"         ...                                        ...         ",
"         ...                                        ...         ",
"         ...                                        ...         ",
"         ...                                        ...         ",
"         ...                   ..                   ...         ",
"         ...                   ..                   ...         ",
"         ...                   ..                   ...         ",
"         ...                   ..                   ...         ",
"         ...                  ....                  ...         ",
"         ...                  ....                  ...         ",
"         ...                  ....                  ...         ",
"         ...                 ......                 ...         ",
"         ...                 ......                 ...         ",
"         ...                 ......                 ...         ",
"         ...                ........                ...         ",
"         ...      ............................      ...         ",
"         ...       ..........................       ...         ",
"         ...         ......................         ...         ",
"         ...          ....................          ...         ",
"         ...           ..................           ...         ",
"         ...             ..............             ...         ",
"         ...              ............              ...         ",
"         ...              ............              ...         ",
"         ...              ............              ...         ",
"         ...             ..............             ...         ",
"         ...             ..............             ...         ",
"         ...             ..............             ...         ",
"         ...            .......  .......            ...         ",
"         ...            .....      .....            ...         ",
"         ...            ....        ....            ...         ",
"         ...           ....          ....           ...         ",
"         ...           ..              ..           ...         ",
"         ...           .                .           ...         ",
"         ...                                        ...         ",
"         ...                                        ...         ",
"         ...                                        ...         ",
"         ...                                        ...         ",
"         ...                                        ...         ",
"          ..                                        ..          ",
"          ..                                        ..          ",
"          ....                                    ....          ",
"           ..........................................           ",
"            ........................................            "
};
