/* XPM */
static const char *interactions_xpm[] = {
/* columns rows colors chars-per-pixel */
"32 32 2 1 ",
"  c None",
". c #010002",
/* pixels */
"                    ...         ",
"                   .....        ",
"                   ......       ",
"                   ......       ",
"                   .....        ",
"                    ...         ",
"                    ..          ",
"                    .           ",
"                   ..           ",
"                   .            ",
"                   .            ",
"                 ...            ",
"               .....            ",
"              .......           ",
"    ...       .......           ",
"   .....  ...........           ",
"   .........  .........   ..    ",
"   ......      .....  .......   ",
"   .....         ..    ......   ",
"    ..            .     .....   ",
"                  .     .....   ",
"                  .      ...    ",
"                  .             ",
"                  .             ",
"                  .             ",
"                  .             ",
"                  ..            ",
"                 .....          ",
"                ......          ",
"                ......          ",
"                 .....          ",
"                  ...           "
};
