/* XPM */
static const char *interactions_xpm[] = {
/* columns rows colors chars-per-pixel */
"64 64 5 1 ",
"  c None",
". c #010001",
"X c #010002",
"o c #010003",
"O c #020002",
/* pixels */
"                                         OoXoO                  ",
"                                        XXXXXXX                 ",
"                                       XXXXXXXXX                ",
"                                      oXXXXXXXXXo               ",
"                                      XXXXXXXXXXX               ",
"                                      XXXXXXXXXXX               ",
"                                      XXXXXXXXXXX               ",
"                                      XXXXXXXXXXX               ",
"                                      OXXXXXXXXXO               ",
"                                       .XXXXXXXX                ",
"                                        .XXXXX.                 ",
"                                        OXXo                    ",
"                                        XXX                     ",
"                                        XXX                     ",
"                                       OXXO                     ",
"                                       XXX                      ",
"                                       XXX                      ",
"                                      OXX                       ",
"                                      XXX                       ",
"                                      XX.                       ",
"                                     .XX                        ",
"                                     XXX                        ",
"                                     XX.                        ",
"                                .XXXXXX                         ",
"                               XXXXXXXXO                        ",
"                              XXXXXXXXXXO                       ",
"                             XXXXXXXXXXXX                       ",
"                             XXXXXXXXXXXXO                      ",
"        OoXXO               OXXXXXXXXXXXXX                      ",
"       XXXXXXX             OXXXXXXXXXXXXXX                      ",
"      XXXXXXXXX        OXXXXXXXXXXXXXXXXXX                      ",
"     OXXXXXXXXXX   .XXXXXXXXXXXXXXXXXXXXXXO                     ",
"     XXXXXXXXXXXXXXXXXXXXXO  XXXXXXXXXXXXXXX.        O          ",
"     XXXXXXXXXXXXXXXXoO      .XXXXXXXXXXXXXXXX.   .XXXXXO       ",
"     XXXXXXXXXXXX.            XXXXXXXXXX  OXXXXX.XXXXXXXX.      ",
"     XXXXXXXXXXX               .XXXXXXX     OXXXXXXXXXXXXX      ",
"      XXXXXXXXX.                 O.XXX        OXXXXXXXXXXXX     ",
"      .XXXXXXXX                    XXX          XXXXXXXXXXX     ",
"       OXXXXXo                     XXX          XXXXXXXXXXX     ",
"          O                        XXX          XXXXXXXXXXX     ",
"                                   XXX          XXXXXXXXXXO     ",
"                                   XXX           XXXXXXXXX      ",
"                                   oXX            XXXXXXX       ",
"                                   .XX             OXXoO        ",
"                                   .XX                          ",
"                                   OXX                          ",
"                                   OXX                          ",
"                                   OXX                          ",
"                                   OXX                          ",
"                                    XXO                         ",
"                                    XXO                         ",
"                                    XXO                         ",
"                                    XXX                         ",
"                                   .XXXXXO                      ",
"                                  oXXXXXXXX                     ",
"                                 OXXXXXXXXXO                    ",
"                                 XXXXXXXXXXX                    ",
"                                 XXXXXXXXXXX                    ",
"                                 XXXXXXXXXXX                    ",
"                                 XXXXXXXXXXX                    ",
"                                 XXXXXXXXXX.                    ",
"                                  XXXXXXXXX                     ",
"                                   XXXXXXX                      ",
"                                    OXXoO                       "
};
