/* XPM */
static char *prescription[] = {
/* columns rows colors chars-per-pixel */
"64 64 2 1 ",
"  c None",
". c black",
/* pixels */
"           ...............................                      ",
"          .................................                     ",
"         ...................................                    ",
"        ....                            .....                   ",
"        ...                             ......                  ",
"        ...                             ... ...                 ",
"        ...                             ...  ...                ",
"        ...                             ...   ...               ",
"        ...                             ...    ...              ",
"        ...                             ...     ...             ",
"        ...                             ...      ...            ",
"        ...           .......           ...       ...           ",
"        ...          ........           ....       ...          ",
"        ...          ...  ...            ..............         ",
"        ...          ...   ..             ..............        ",
"        ...          ...   ..              .............        ",
"        ...     ........   .......                   ...        ",
"        ...     ........   ........                  ...        ",
"        ...     .......     .......                  ...        ",
"        ...     ...             ...                  ...        ",
"        ...     ...             ...                  ...        ",
"        ...     .......     .......                  ...        ",
"        ...     ........   ........                  ...        ",
"        ...     ........   .......                   ...        ",
"        ...          ...   ..                        ...        ",
"        ...          ...   ..                        ...        ",
"        ...          ...  ...                        ...        ",
"        ...          ........                        ...        ",
"        ...           .......                        ...        ",
"        ...                                          ...        ",
"        ...                                          ...        ",
"        ...                                          ...        ",
"        ...                                          ...        ",
"        ...                                          ...        ",
"        ...                                          ...        ",
"        ...       ....                               ...        ",
"        ...      ......                              ...        ",
"        ...     ........      .................      ...        ",
"        ...     ...  ...     ...................     ...        ",
"        ...     ...  ...      ..................     ...        ",
"        ...      ......                              ...        ",
"        ...      ......                              ...        ",
"        ...        ..                                ...        ",
"        ...                                          ...        ",
"        ...                                          ...        ",
"        ...                                          ...        ",
"        ...                                          ...        ",
"        ...                                          ...        ",
"        ...       ....                               ...        ",
"        ...      ......                              ...        ",
"        ...     ........                             ...        ",
"        ...     ...  ...      ..................     ...        ",
"        ...     ...  ...      ..................     ...        ",
"        ...     ........                             ...        ",
"        ...      ......                              ...        ",
"        ...       ....                               ...        ",
"        ...                                          ...        ",
"        ...                                          ...        ",
"        ...                                          ...        ",
"        ...                                          ...        ",
"        ....                                        ....        ",
"         ..............................................         ",
"          ............................................          ",
"           ..........................................           "
};
